<?xml version="1.0" encoding="utf-8"?>
<!-- Generator: Adobe Illustrator 27.5.0, SVG Export Plug-In . SVG Version: 6.00 Build 0)  -->
<svg version="1.1" xmlns="http://www.w3.org/2000/svg" xmlns:xlink="http://www.w3.org/1999/xlink" x="0px" y="0px"
	 viewBox="0 0 750 500" style="enable-background:new 0 0 750 500;" xml:space="preserve">
<g id="BACKGROUND">
	<g>
		<g>
			<rect style="fill:#FFFFFF;" width="750" height="500"/>
		</g>
		<g>
			<rect y="396.151" style="fill:#EDEDED;" width="750" height="103.849"/>
		</g>
	</g>
</g>
<g id="OBJECTS">
	<g>
		<ellipse style="fill:#D1D1D1;" cx="375.373" cy="440.582" rx="94.804" ry="14.738"/>
		<g>
			<g>
				<g>
					<path style="fill:#523841;" d="M433.87,436.942h-40.968v-22.196h30.084l6.916,3.902l7.838,4.413
						c1.597,0.906,2.898,2.338,3.441,4.084c0.016,0.082,0.049,0.165,0.066,0.263C442.614,432.199,438.86,436.942,433.87,436.942z"/>
					<path style="fill:#523841;" d="M363.066,414.745v22.196h-40.967c-4.989,0-8.743-4.742-7.377-9.534
						c0.017-0.099,0.049-0.181,0.066-0.263c0.543-1.745,1.844-3.178,3.442-4.084l7.838-4.413l6.916-3.902H363.066z"/>
					<path style="fill:#3D2930;" d="M332.983,414.745h30.083v11.477c-14.078-1.35-26.84-4.429-36.999-7.574L332.983,414.745z"/>
					<path style="fill:#3D2930;" d="M429.902,418.648c-10.16,3.145-22.921,6.224-36.999,7.574v-11.477h30.084L429.902,418.648z"/>
				</g>
				<g>
					<g>
						<g>
							<path style="fill:#E43048;" d="M452.263,406.496c0,0-34.2,17.174-74.279,17.174s-74.278-17.174-74.278-17.174l8.184-35.83
								l11.164-48.871h109.862l11.164,48.871L452.263,406.496z"/>
							<path style="fill:#D62D44;" d="M452.263,406.496c0,0-34.2,17.174-74.279,17.174s-74.278-17.174-74.278-17.174l3.458-15.165
								c14.869,12.119,36.522,19.759,60.612,19.759c35.32,0,65.37-16.4,76.551-39.304L452.263,406.496z"/>
						</g>
						<g>
							<path style="fill:#D62D44;" d="M438.25,412.325c-4.989,1.828-11.115,3.82-18.063,5.615l-16.301-96.145h15.231L438.25,412.325
								z"/>
							<path style="fill:#D62D44;" d="M399.259,422.139c-6.768,0.955-13.93,1.531-21.274,1.531V321.794h11.823L399.259,422.139z"/>
							<path style="fill:#D62D44;" d="M366.162,321.794l-9.452,100.344c-7.509-1.037-14.556-2.536-20.912-4.182l16.302-96.162
								H366.162z"/>
							<path style="fill:#D62D44;" d="M336.852,321.794l-19.134,90.53c-8.776-3.194-14.013-5.829-14.013-5.829l19.348-84.702
								H336.852z"/>
							<path style="fill:#C92A40;" d="M307.164,391.331c3.935,3.211,8.348,6.109,13.173,8.628l-2.618,12.366
								c-3.837-1.4-6.998-2.684-9.336-3.705c-0.23-0.099-0.461-0.198-0.675-0.28c-2.585-1.136-4.001-1.844-4.001-1.844
								L307.164,391.331z"/>
							<path style="fill:#C92A40;" d="M337.676,406.891c6.356,1.844,13.091,3.129,20.121,3.754l-1.087,11.477v0.017
								c-0.939-0.132-1.877-0.263-2.799-0.412c-0.741-0.115-1.465-0.231-2.206-0.362c-0.329-0.049-0.659-0.099-0.971-0.165
								c-0.758-0.132-1.515-0.263-2.256-0.412c-0.906-0.165-1.778-0.329-2.651-0.51c-1.745-0.346-3.458-0.724-5.137-1.12
								c-0.84-0.198-1.663-0.395-2.47-0.593c-0.708-0.181-1.416-0.346-2.108-0.527c-0.099-0.033-0.214-0.049-0.313-0.082
								L337.676,406.891z"/>
							<path style="fill:#C92A40;" d="M397.826,406.908l1.432,15.215v0.017c-0.84,0.115-1.696,0.231-2.552,0.346l-2.124,0.247
								c-0.758,0.082-1.531,0.165-2.305,0.23c-0.873,0.099-1.745,0.165-2.618,0.231c-0.28,0.033-0.543,0.049-0.823,0.066
								c-0.593,0.049-1.186,0.082-1.778,0.115c-0.543,0.049-1.087,0.082-1.63,0.099c-1.07,0.066-2.141,0.099-3.227,0.132
								c-0.494,0.017-0.971,0.033-1.465,0.033c-0.922,0.017-1.828,0.033-2.75,0.033v-13.057
								C384.917,410.003,391.569,408.735,397.826,406.908z"/>
							<path style="fill:#C92A40;" d="M438.25,412.325c-1.383,0.51-2.865,1.021-4.413,1.548c-0.543,0.181-1.103,0.362-1.663,0.56
								c-1.449,0.478-2.964,0.955-4.528,1.416c-0.79,0.247-1.597,0.478-2.404,0.708c-0.609,0.181-1.235,0.362-1.861,0.527
								c-0.527,0.148-1.054,0.296-1.581,0.428c-0.527,0.148-1.07,0.296-1.614,0.428l-3.211-18.936
								c6.06-3.343,11.444-7.311,15.972-11.757L438.25,412.325z"/>
						</g>
						<path style="fill:#C92A40;" d="M444.079,370.666c-2.47,0.181-4.858,0.28-7.163,0.28c-37.971,0-53.169-23.382-58.932-37.74
							c-5.763,14.358-20.961,37.74-58.932,37.74c-2.305,0-4.693-0.099-7.163-0.28l11.164-48.871h109.862L444.079,370.666z"/>
					</g>
					<g>
						<path style="fill:#F03E57;" d="M377.989,321.793c0,0,7.365,50.933,67.772,45.441l-12.844-45.441H377.989z"/>
						<path style="fill:#FA415B;" d="M437.738,338.844c2.554,9.03-4.003,18.127-13.38,18.48
							c-33.269,1.253-43.042-22.641-45.583-31.924c-0.082-0.329-0.165-0.642-0.247-0.939c-0.049-0.23-0.099-0.445-0.132-0.642
							c-0.016-0.033-0.033-0.082-0.033-0.115c-0.132-0.593-0.231-1.07-0.296-1.4c-0.066-0.329-0.082-0.51-0.082-0.51h54.931
							L437.738,338.844z"/>
					</g>
					<g>
						<path style="fill:#F03E57;" d="M377.98,321.793c0,0-7.365,50.933-67.772,45.441l12.844-45.441H377.98z"/>
						<path style="fill:#FA415B;" d="M318.231,338.844c-2.554,9.03,4.003,18.127,13.38,18.48
							c33.27,1.253,43.042-22.641,45.583-31.924c0.082-0.329,0.165-0.642,0.247-0.939c0.049-0.23,0.099-0.445,0.132-0.642
							c0.016-0.033,0.033-0.082,0.033-0.115c0.132-0.593,0.23-1.07,0.296-1.4c0.066-0.329,0.082-0.51,0.082-0.51h-54.931
							L318.231,338.844z"/>
					</g>
				</g>
			</g>
			<g>
				<g>
					<path style="fill:#F0E7D0;" d="M425.501,241.994l-24.918-9.242h-22.595h-22.595l-24.918,9.242l-11.85,85.142
						c0,0,3.797,10.933,20.771,8.579c0,0,9.664,9.168,23.823,4.685c0,0,5.022,3.159,14.769,3.159c9.747,0,14.769-3.159,14.769-3.159
						c14.159,4.483,23.823-4.685,23.823-4.685c16.974,2.354,20.771-8.579,20.771-8.579L425.501,241.994z"/>
					<path style="fill:#E8DCBE;" d="M437.345,327.129c0,0-3.787,10.934-20.764,8.579c0,0-9.665,9.172-23.826,4.693
						c0,0-5.022,3.161-14.77,3.161c-9.748,0-14.77-3.161-14.77-3.161c-14.161,4.479-23.81-4.693-23.81-4.693
						c-16.977,2.355-20.78-8.579-20.78-8.579l1.4-10.094c12.843,8.694,29.277,13.914,47.159,13.914
						c28.684,0,53.581-13.403,66.095-33.064L437.345,327.129z"/>
					<path style="fill:#DED2B6;" d="M404.069,301.334c-0.052-0.331-1.315-8.194-4.99-15.96
						c-5.103-10.784-12.393-16.076-21.09-15.378c-8.692-0.703-15.99,4.594-21.092,15.378c-3.674,7.765-4.938,15.629-4.99,15.96
						l-0.424,2.694l2.724,0.155c0.54,0.031,1.072,0.046,1.598,0.046c5.815,0,10.769-1.876,14.744-5.588
						c3.679-3.435,5.984-7.973,7.439-12.305c1.454,4.333,3.76,8.87,7.439,12.305c3.975,3.712,8.929,5.588,14.744,5.588
						c0.526,0,1.06-0.015,1.598-0.046l2.724-0.155L404.069,301.334z"/>
				</g>
				<g>
					<g>
						<g>
							<g>
								<path style="fill:#FFAB91;" d="M322.769,337.84l-0.28,0.05c0,0-0.3,1.15-2.02,2.36c-2.91,2.04-6.78,2.03-9.81,0.19
									c-1.74-1.05-3.76-2.54-5.59-4.58c-2.1-2.32-1.5-6.06,1.25-7.59c0.04-0.02,0.08-0.04,0.12-0.06c0,0-1.03-1.19-1.85-3.03
									c-0.33-0.71-0.62-1.51-0.81-2.38c-0.06-0.26-0.11-0.53-0.14-0.8c-0.16-1.12-0.13-2.32,0.21-3.54
									c0.31-1.11,0.88-2.24,1.8-3.35c0,0,6.1-2.97,12.98-2.64c1.44,0.07,2.92,0.28,4.39,0.71c0.61,0.17,1.23,0.39,1.83,0.64
									c0.01,0.02,0.02,0.01,0.02,0.01v0.01c0,0,0.03,0.03,0.08,0.08c0.58,0.62,4.36,4.91,5.44,13.04
									C331.059,332.03,327.769,336.83,322.769,337.84z"/>
								<path style="fill:#FFB59D;" d="M319.073,327.849c-0.107,4.178,2.064,7.624,4.85,7.696c2.786,0.072,5.131-3.258,5.238-7.437
									c0.107-4.179-2.064-7.624-4.85-7.696C321.525,320.341,319.18,323.67,319.073,327.849z"/>
								<path style="fill:#CF7857;" d="M306.419,328.215c0,0,1.324-0.986,2.939-1.386c0.347-0.086,0.538-0.459,0.419-0.796v0
									c-0.112-0.316-0.452-0.484-0.771-0.381c-0.746,0.24-2.091,0.746-3.271,1.58
									C305.735,327.232,306.099,327.836,306.419,328.215z"/>
							</g>
							<path style="fill:#FFAB91;" d="M327.159,317.66c-5.45,6.07-15.75,4.85-19.65,4.12c-0.98-0.18-1.55-0.33-1.55-0.33l-2.11-2.99
								l-7.1-10.06l17.73-12.19l9.5,16.06l0.97,1.65L327.159,317.66z"/>
							<path style="fill:#FD9176;" d="M323.979,312.27c-0.3,0.29-0.62,0.59-0.96,0.91c-2.84,2.61-7.36,5.81-14.09,8.13
								c-0.46,0.16-0.94,0.32-1.42,0.47c-1.18,0.38-2.42,0.72-3.73,1.02c-0.06-0.26-0.11-0.53-0.14-0.8
								c-0.16-1.12-0.13-2.32,0.21-3.54l-7.1-10.06l17.73-12.19L323.979,312.27z"/>
						</g>
						<g>
							<path style="fill:#F0E7D0;" d="M330.476,241.994c0,0-2.81,0.856-6.126,1.962c-5.719,1.907-10.658,5.633-14.102,10.581
								l-18.071,24.299c0,0-7.446,10.89-0.195,22.924l9.373,18.965c0,0,13.895-2.652,22.077-12.164l-7.853-16.326l9.367-10.507
								L330.476,241.994z"/>
							<path style="fill:#C7B78F;" d="M324.946,281.727l2.673-19.302c0.07-0.509-0.325-0.963-0.839-0.963l0,0
								c-0.423,0-0.781,0.312-0.839,0.731l-3.021,21.809L324.946,281.727z"/>
							<path style="fill:#C7B78F;" d="M315.579,292.234l-2.582-5.725c-0.181-0.402,0.008-0.874,0.417-1.04l0,0
								c0.383-0.155,0.82,0.017,0.995,0.391l2.361,5.04L315.579,292.234z"/>
						</g>
					</g>
					<g>
						<g>
							<g>
								<path style="fill:#FFAB91;" d="M433.209,337.84l0.28,0.05c0,0,0.3,1.15,2.02,2.36c2.91,2.04,6.78,2.03,9.81,0.19
									c1.74-1.05,3.76-2.54,5.59-4.58c2.1-2.32,1.5-6.06-1.25-7.59c-0.04-0.02-0.08-0.04-0.12-0.06c0,0,1.03-1.19,1.85-3.03
									c0.33-0.71,0.62-1.51,0.81-2.38c0.06-0.26,0.11-0.53,0.14-0.8c0.16-1.12,0.13-2.32-0.21-3.54c-0.31-1.11-0.88-2.24-1.8-3.35
									c0,0-6.1-2.97-12.98-2.64c-1.44,0.07-2.92,0.28-4.39,0.71c-0.61,0.17-1.23,0.39-1.83,0.64c-0.01,0.02-0.02,0.01-0.02,0.01
									v0.01c0,0-0.03,0.03-0.08,0.08c-0.58,0.62-4.36,4.91-5.44,13.04C424.919,332.03,428.209,336.83,433.209,337.84z"/>
								<path style="fill:#FFB59D;" d="M436.905,327.849c0.107,4.178-2.064,7.624-4.85,7.696c-2.786,0.072-5.131-3.258-5.238-7.437
									c-0.107-4.179,2.064-7.624,4.85-7.696C434.452,320.341,436.797,323.67,436.905,327.849z"/>
								<path style="fill:#CF7857;" d="M449.558,328.215c0,0-1.324-0.986-2.939-1.386c-0.347-0.086-0.538-0.459-0.419-0.796l0,0
									c0.112-0.316,0.452-0.484,0.771-0.381c0.746,0.24,2.091,0.746,3.271,1.58C450.242,327.232,449.879,327.836,449.558,328.215z
									"/>
							</g>
							<path style="fill:#FFAB91;" d="M428.819,317.66c5.45,6.07,15.75,4.85,19.65,4.12c0.98-0.18,1.55-0.33,1.55-0.33l2.11-2.99
								l7.1-10.06l-17.73-12.19l-9.5,16.06l-0.97,1.65L428.819,317.66z"/>
							<path style="fill:#FD9176;" d="M431.999,312.27c0.3,0.29,0.62,0.59,0.96,0.91c2.84,2.61,7.36,5.81,14.09,8.13
								c0.46,0.16,0.94,0.32,1.42,0.47c1.18,0.38,2.42,0.72,3.73,1.02c0.06-0.26,0.11-0.53,0.14-0.8c0.16-1.12,0.13-2.32-0.21-3.54
								l7.1-10.06l-17.73-12.19L431.999,312.27z"/>
						</g>
						<g>
							<path style="fill:#F0E7D0;" d="M425.501,241.994c0,0,2.81,0.856,6.126,1.962c5.719,1.907,10.658,5.633,14.102,10.581
								l18.071,24.299c0,0,7.446,10.89,0.195,22.924l-9.373,18.965c0,0-13.895-2.652-22.077-12.164l7.853-16.326l-9.367-10.507
								L425.501,241.994z"/>
							<path style="fill:#C7B78F;" d="M431.031,281.727l-2.672-19.302c-0.071-0.509,0.325-0.963,0.839-0.963l0,0
								c0.423,0,0.781,0.312,0.839,0.731l3.021,21.809L431.031,281.727z"/>
							<path style="fill:#C7B78F;" d="M440.398,292.234l2.582-5.725c0.181-0.402-0.008-0.874-0.417-1.04l0,0
								c-0.383-0.155-0.82,0.017-0.995,0.391l-2.361,5.04L440.398,292.234z"/>
						</g>
					</g>
				</g>
				<path style="fill:#DED2B6;" d="M432.57,244.7c-0.807,2.075-2.486,5.582-5.533,8.249c-1.745,1.548-3.968,2.816-6.735,3.375
					c-0.478,1.4-1.251,3.244-2.503,5.105c-1.152,1.729-2.7,3.491-4.775,4.907c-3.721,2.519-8.233,3.441-13.453,2.75
					c-3.376,4.314-10.654,9.023-21.571,5.17c-2.849,1.004-5.45,1.416-7.805,1.433c-6.652,0-11.279-3.409-13.766-6.603
					c-5.236,0.692-9.748-0.23-13.453-2.75c-2.091-1.432-3.672-3.194-4.824-4.94c-1.219-1.844-1.992-3.672-2.453-5.072
					c-2.783-0.56-4.989-1.844-6.751-3.375c-3.046-2.684-4.726-6.191-5.516-8.266c3.689-2.075,7.048-2.684,7.048-2.684l24.913-9.254
					h45.183l24.93,9.254C425.506,242,428.881,242.609,432.57,244.7z"/>
				<g>
					<path style="fill:#FFAB91;" d="M407.216,233.953c-11.18,11.872-29.227,14.111-29.227,14.111s-18.047-2.239-29.227-14.111
						l7.13-2.799l-0.066-3.656l-0.132-11.329H400.3l-0.148,11.329l-0.066,3.656L407.216,233.953z"/>
					<path style="fill:#FD9176;" d="M400.3,216.169l-0.148,11.329c-6.521,1.12-13.881,1.795-22.163,1.795
						c-8.282,0-15.643-0.675-22.163-1.795l-0.132-11.329H400.3z"/>
				</g>
				<g>
					<path style="fill:#F5EEDD;" d="M407.22,233.879c-12.022,12.01-29.223,14.106-29.223,14.106s-17.201-2.096-29.223-14.106
						l-22.733,8.238c0,0,2.781,10.833,12.246,11.217c0,0,2.686,15.733,19.697,12.151c0,0,5.746,11,20.012,5.244
						c14.266,5.756,20.012-5.244,20.012-5.244c17.011,3.581,19.698-12.151,19.698-12.151c9.465-0.384,12.246-11.217,12.246-11.217
						L407.22,233.879z"/>
					<g>
						<path style="fill:#F5EEDD;" d="M377.989,272.467c0,0,0.357,30.576,23.641,29.25
							C401.63,301.718,396.757,270.703,377.989,272.467z"/>
						<path style="fill:#F5EEDD;" d="M377.989,272.467c0,0-0.357,30.576-23.642,29.25
							C354.347,301.718,359.22,270.703,377.989,272.467z"/>
					</g>
					<g>
						<ellipse style="fill:#F6424A;" cx="377.702" cy="265.249" rx="9.639" ry="10.446"/>
						<path style="fill:#FD555D;" d="M385.755,264.555c0,3.959-2.962,7.169-6.615,7.169c-3.654,0-6.615-3.21-6.615-7.169
							c0-3.959,2.962-7.169,6.615-7.169C382.793,257.386,385.755,260.596,385.755,264.555z"/>
					</g>
				</g>
			</g>
			<g>
				<g>
					<path style="fill:#432934;" d="M363.409,101.139c0,0-2.56-36.265,33.196-38.019c10.862-0.533,21.727,2.389,30.337,9.03
						c10.006,7.717,19.134,21.604,5.318,43.807l-39.576-1.265L363.409,101.139z"/>
					<ellipse style="fill:#4A2D39;" cx="398.871" cy="79.051" rx="23.364" ry="14.698"/>
				</g>
				<path style="fill:#432934;" d="M399.084,103.153c0,0-20.019-20.019-51.133-14.728c-19.446,3.307-36.071,16.361-43.011,34.824
					c-3.04,8.087-3.924,16.682,1.575,22.864c0,0-1.525,15.944-0.818,30.912l71.798,21.488l75.432-24.811
					c0,0,3.082-25.101-0.205-46.307c-2.679-17.288-17.597-30.454-35.085-29.996C411.877,97.55,405.596,99.152,399.084,103.153z"/>
				<g>
					<path style="fill:#FFAB91;" d="M425.395,181.563c0,0,18.198-15.362,30.363-6.213c4.508,3.391,6.532,9.13,5.822,14.726
						c-1.077,8.489-7.465,19.942-36.185,11.863V181.563z"/>
					<g>
						<path style="fill:#FF9376;" d="M450.232,193.442c-1.552,1.58-4.086,2.933-8.159,3.488c-3.488,0.484-8.13,0.37-14.253-0.684
							v-7.333c0,0,5.097-4.613,10.907-6.92c1.936-0.769,3.944-1.267,5.866-1.267C451.371,180.756,454.988,188.601,450.232,193.442z"
							/>
						<path style="fill:#EB7D5D;" d="M445.548,194.652c-0.84,0.854-1.965,1.637-3.474,2.278c-3.488,0.484-8.13,0.37-14.253-0.684
							v-7.333c0,0,5.097-4.613,10.907-6.92c0.399-0.043,0.783-0.057,1.168-0.057C446.687,181.952,450.289,189.811,445.548,194.652z"
							/>
					</g>
				</g>
				<g>
					<path style="fill:#FFAB91;" d="M329.593,181.563c0,0-18.198-15.362-30.363-6.213c-4.508,3.391-6.532,9.13-5.822,14.726
						c1.077,8.489,7.465,19.942,36.185,11.863V181.563z"/>
					<g>
						<path style="fill:#FF9376;" d="M304.756,193.442c1.552,1.58,4.086,2.933,8.159,3.488c3.488,0.484,8.13,0.37,14.253-0.684
							v-7.333c0,0-5.097-4.613-10.907-6.92c-1.936-0.769-3.944-1.267-5.866-1.267C303.617,180.756,300,188.601,304.756,193.442z"/>
						<path style="fill:#EB7D5D;" d="M309.44,194.652c0.84,0.854,1.965,1.637,3.474,2.278c3.488,0.484,8.13,0.37,14.253-0.684
							v-7.333c0,0-5.097-4.613-10.907-6.92c-0.399-0.043-0.783-0.057-1.168-0.057C308.301,181.952,304.699,189.811,309.44,194.652z"
							/>
					</g>
				</g>
				<g>
					<path style="fill:#FFAB91;" d="M431.954,125.742h-54.46h-54.46l-2.521,66.665c-0.415,10.187,5.351,19.712,14.691,23.8
						c9.366,4.099,23.26,7.983,42.289,7.983c19.029,0,32.924-3.884,42.29-7.983c9.34-4.088,15.106-13.613,14.691-23.8
						L431.954,125.742z"/>
					<path style="fill:#FF9376;" d="M433.081,155.308c-55.908,12.974-74.782-21.586-74.782-21.586
						c-24.711,0.555-36.447,23.188-36.447,23.188l1.174-31.166h108.929L433.081,155.308z"/>
				</g>
				<path style="fill:#432934;" d="M320.492,154.994c0,0,9.084-26.577,39.7-26.577c0,0,19.417,34.864,74.303,21.591v-27.431
					l-114.004,0.708V154.994z"/>
				<g>
					<g>
						<ellipse style="fill:#432934;" cx="348.35" cy="178.446" rx="9.951" ry="12.134"/>
						<circle style="fill:#FFFFFF;" cx="351.348" cy="175.646" r="4.476"/>
						<path style="fill:#432934;" d="M340.367,171.267c0,0-3.111,3.978-6.435,3.699c0,0,3.021,2.668,6.646,0.68L340.367,171.267z"/>
					</g>
					<g>
						<ellipse style="fill:#432934;" cx="406.637" cy="178.446" rx="9.951" ry="12.134"/>
						<circle style="fill:#FFFFFF;" cx="403.64" cy="175.646" r="4.476"/>
						<path style="fill:#432934;" d="M414.621,171.267c0,0,3.111,3.978,6.435,3.699c0,0-3.021,2.668-6.646,0.68L414.621,171.267z"/>
					</g>
					<path style="fill:#432934;" d="M337.86,157.759c1.848-1.078,4.723-2.316,8.598-2.71c2.034-0.207,3.524-2.007,3.273-4.035l0,0
						c-0.246-1.991-2.062-3.387-4.053-3.14c-3.062,0.379-7.529,1.594-11.321,5.245c-0.925,0.891-1.123,2.307-0.528,3.445l0,0
						C334.595,158.028,336.431,158.592,337.86,157.759z"/>
					<path style="fill:#432934;" d="M417.128,157.759c-1.848-1.078-4.723-2.316-8.598-2.71c-2.034-0.207-3.524-2.007-3.273-4.035
						l0,0c0.246-1.991,2.062-3.387,4.053-3.14c3.062,0.379,7.529,1.594,11.321,5.245c0.925,0.891,1.123,2.307,0.528,3.445l0,0
						C420.392,158.028,418.557,158.592,417.128,157.759z"/>
					<g>
						<g>
							<path style="fill:#F28468;" d="M383.481,186.393c0,3.217-2.608,5.825-5.825,5.825s-5.825-2.608-5.825-5.825
								c0-3.217,2.608-5.825,5.825-5.825S383.481,183.176,383.481,186.393z"/>
							<path style="fill:#FD9176;" d="M381.779,185.745c0,1.946-1.578,3.524-3.524,3.524s-3.524-1.578-3.524-3.524
								s1.578-3.524,3.524-3.524S381.779,183.799,381.779,185.745z"/>
						</g>
						<path d="M382.847,188.979c0.413-0.783,0.627-1.652,0.627-2.591c0-3.218-2.606-5.824-5.824-5.824
							c-3.161,0-5.738,2.52-5.809,5.667c-0.142-0.513-0.214-1.054-0.214-1.609c0-3.574,2.89-6.464,6.464-6.464
							c3.56,0,6.464,2.89,6.464,6.464C384.556,186.302,383.915,187.839,382.847,188.979z"/>
					</g>
					<ellipse style="fill:#FF8664;" cx="337.877" cy="190.581" rx="8.063" ry="5.177"/>
					<ellipse style="fill:#FF8664;" cx="417.434" cy="190.581" rx="8.063" ry="5.177"/>
					<path style="fill:#432934;" d="M377.649,203.683c-6.043,0-9.992-1.919-9.992-1.919s1.443,4.394,9.992,4.394
						c8.549,0,9.992-4.394,9.992-4.394S383.692,203.683,377.649,203.683z"/>
				</g>
				<g>
					<g>
						<path style="fill:#FFC15E;" d="M447.479,204.961c0,3.04-2.465,5.505-5.505,5.505c-3.04,0-5.505-2.465-5.505-5.505
							s2.465-5.505,5.505-5.505C445.014,199.456,447.479,201.921,447.479,204.961z"/>
						<circle style="fill:#FFC973;" cx="442.579" cy="204.17" r="3.897"/>
					</g>
					<g>
						<path style="fill:#FFC15E;" d="M307.509,204.961c0,3.04,2.465,5.505,5.505,5.505s5.505-2.465,5.505-5.505
							s-2.465-5.505-5.505-5.505S307.509,201.921,307.509,204.961z"/>
						<circle style="fill:#FFC973;" cx="312.408" cy="204.17" r="3.897"/>
					</g>
				</g>
			</g>
		</g>
	</g>
	<g>
		<ellipse style="fill:#D1D1D1;" cx="594.895" cy="440.582" rx="94.804" ry="14.738"/>
		<g>
			<g>
				<g>
					<g>
						<path style="fill:#FFAB91;" d="M531.228,436.942h35.88c2.81,0,5.088-2.278,5.088-5.088v-17.109h-30.083l-6.916,3.902
							l-7.838,4.413c-1.597,0.906-2.898,2.338-3.441,4.084c-0.016,0.082-0.049,0.165-0.066,0.263
							C522.484,432.199,526.238,436.942,531.228,436.942z"/>
						<path style="fill:#FFAB91;" d="M548.493,310.255c0,0-5.445,81.332-7.919,105.194c0,0,7.352,3.76,31.621,1.487l11.008-96.03
							C583.203,320.906,560.211,318.433,548.493,310.255z"/>
					</g>
					<g>
						<path style="fill:#FFAB91;" d="M658.441,436.942h-35.88c-2.81,0-5.088-2.278-5.088-5.088v-17.109h30.083l6.916,3.902
							l7.838,4.413c1.597,0.906,2.898,2.338,3.441,4.084c0.016,0.082,0.049,0.165,0.066,0.263
							C667.185,432.199,663.43,436.942,658.441,436.942z"/>
						<path style="fill:#FFAB91;" d="M641.176,310.255c0,0,5.445,81.332,7.919,105.194c0,0-7.352,3.76-31.621,1.487l-11.008-96.03
							C606.465,320.906,628.826,317.724,641.176,310.255z"/>
					</g>
					<g>
						<path style="fill:#523841;" d="M642.036,322.902c-2.47,1.07-5.615,1.959-8.052,2.799c-10.11,3.54-19.726,5.335-26.922,6.257
							c-7.558,0.971-12.448,0.971-12.448,0.971s-4.989,0-12.679-1.004c-7.179-0.939-16.696-2.733-26.691-6.224
							c-2.519-0.873-5.072-1.861-7.607-2.964c0.527-7.657,0.856-12.481,0.856-12.481s0.016,0,0.033,0.017
							c0.017,0.017,0.049,0.033,0.099,0.066c0.642,0.379,3.59,2.058,8.431,4.018c7.953,3.211,21.044,7.13,37.559,7.13
							c3.952,0,7.706-0.214,11.23-0.593c0.049-0.016,0.115-0.016,0.165-0.016c0.379-0.049,0.757-0.099,1.12-0.132
							c0.642-0.099,1.284-0.181,1.91-0.263c0.346-0.049,0.675-0.099,1.021-0.148c0.362-0.049,0.708-0.115,1.07-0.181
							c0.626-0.082,1.268-0.198,1.877-0.313c0.642-0.115,1.268-0.231,1.877-0.362c0.428-0.066,0.84-0.148,1.235-0.247
							c0.412-0.082,0.823-0.165,1.235-0.263c0.527-0.115,1.054-0.247,1.581-0.362c5.302-1.284,9.764-2.816,13.239-4.232
							c2.931-1.186,5.845-2.206,7.31-2.963c0.84-0.445,1.416-0.774,1.713-0.955C641.246,311.277,641.559,315.92,642.036,322.902z"/>
						<path style="fill:#E43048;" d="M641.806,319.675c-12.794,5.467-26.214,7.87-35.122,8.99c-7.327,0.922-12.07,0.922-12.07,0.922
							s-4.825,0-12.3-0.955c-8.958-1.136-21.702-3.639-34.464-9.139c0.049-0.576,0.082-1.12,0.132-1.647
							c12.811,5.516,25.605,8.003,34.529,9.139c7.36,0.922,12.102,0.922,12.102,0.922s4.66,0,11.889-0.889
							c8.908-1.12,22.36-3.507,35.204-9.007C641.74,318.539,641.773,319.098,641.806,319.675z"/>
						<path style="fill:#E43048;" d="M641.559,315.92c-12.926,5.5-26.444,7.887-35.303,8.957
							c-7.097,0.873-11.642,0.873-11.642,0.873s-4.643,0-11.872-0.906c-8.908-1.103-21.752-3.573-34.628-9.089
							c0.049-0.593,0.082-1.153,0.115-1.647c12.942,5.549,25.819,8.003,34.711,9.089c7.113,0.873,11.674,0.873,11.674,0.873
							s4.462,0,11.444-0.84c8.859-1.07,22.426-3.441,35.402-8.94C641.477,314.784,641.526,315.328,641.559,315.92z"/>
					</g>
					<path style="fill:#523841;" d="M643.086,338.067v0.016c-10.983,5.17-24.661,7.558-34.327,8.645
						c-8.299,0.955-14.144,0.955-14.144,0.955s-5.961,0-14.375-0.971c-9.715-1.12-22.723-3.54-33.657-8.76
						c0.165-2.371,0.329-4.66,0.478-6.817c3.458,1.68,9.073,4.051,16.68,6.175c5.664,1.581,11.411,2.717,17.191,3.409
						c9.007,1.07,18.129,1.087,27.136,0.033c5.878-0.691,11.708-1.844,17.438-3.441c7.426-2.075,13.629-4.396,17.103-6.059
						C642.756,333.407,642.921,335.696,643.086,338.067z"/>
					<path style="fill:#FF9F85;" d="M572.194,419.48v12.37c0,2.81-2.28,5.09-5.09,5.09h-26.28
						C566.064,435.52,572.194,419.48,572.194,419.48z"/>
					<path style="fill:#FF9F85;" d="M617.035,419.48v12.37c0,2.81,2.28,5.09,5.09,5.09h26.28
						C623.165,435.52,617.035,419.48,617.035,419.48z"/>
				</g>
				<g>
					<g>
						
							<line style="fill:none;stroke:#432934;stroke-width:1.6466;stroke-linecap:round;stroke-miterlimit:10;" x1="549.283" y1="367.246" x2="546.925" y2="381.097"/>
						
							<line style="fill:none;stroke:#432934;stroke-width:1.6466;stroke-linecap:round;stroke-miterlimit:10;" x1="594.615" y1="379.792" x2="594.615" y2="396.864"/>
						
							<line style="fill:none;stroke:#432934;stroke-width:1.6466;stroke-linecap:round;stroke-miterlimit:10;" x1="591.618" y1="396.436" x2="592.07" y2="379.207"/>
						
							<line style="fill:none;stroke:#432934;stroke-width:1.6466;stroke-linecap:round;stroke-miterlimit:10;" x1="588.757" y1="396.436" x2="589.392" y2="378.938"/>
						
							<line style="fill:none;stroke:#432934;stroke-width:1.6466;stroke-linecap:round;stroke-miterlimit:10;" x1="585.946" y1="396.151" x2="587.005" y2="378.747"/>
						
							<line style="fill:none;stroke:#432934;stroke-width:1.6466;stroke-linecap:round;stroke-miterlimit:10;" x1="583.203" y1="395.907" x2="584.348" y2="378.518"/>
						
							<line style="fill:none;stroke:#432934;stroke-width:1.6466;stroke-linecap:round;stroke-miterlimit:10;" x1="580.221" y1="395.411" x2="581.513" y2="378.254"/>
						
							<line style="fill:none;stroke:#432934;stroke-width:1.6466;stroke-linecap:round;stroke-miterlimit:10;" x1="577.384" y1="394.964" x2="578.814" y2="378.254"/>
						
							<line style="fill:none;stroke:#432934;stroke-width:1.6466;stroke-linecap:round;stroke-miterlimit:10;" x1="574.293" y1="393.825" x2="575.926" y2="377.878"/>
						
							<line style="fill:none;stroke:#432934;stroke-width:1.6466;stroke-linecap:round;stroke-miterlimit:10;" x1="571.241" y1="393.364" x2="573.226" y2="377.564"/>
						
							<line style="fill:none;stroke:#432934;stroke-width:1.6466;stroke-linecap:round;stroke-miterlimit:10;" x1="568.397" y1="392.71" x2="570.9" y2="377.181"/>
						
							<line style="fill:none;stroke:#432934;stroke-width:1.6466;stroke-linecap:round;stroke-miterlimit:10;" x1="565.874" y1="391.761" x2="568.397" y2="377.181"/>
						
							<line style="fill:none;stroke:#432934;stroke-width:1.6466;stroke-linecap:round;stroke-miterlimit:10;" x1="563.185" y1="390.576" x2="565.874" y2="376.858"/>
						
							<line style="fill:none;stroke:#432934;stroke-width:1.6466;stroke-linecap:round;stroke-miterlimit:10;" x1="560.314" y1="389.482" x2="563.185" y2="376.266"/>
						
							<line style="fill:none;stroke:#432934;stroke-width:1.6466;stroke-linecap:round;stroke-miterlimit:10;" x1="557.215" y1="388.434" x2="560.132" y2="375.445"/>
						
							<line style="fill:none;stroke:#432934;stroke-width:1.6466;stroke-linecap:round;stroke-miterlimit:10;" x1="554.481" y1="386.942" x2="557.489" y2="374.172"/>
						
							<line style="fill:none;stroke:#432934;stroke-width:1.6466;stroke-linecap:round;stroke-miterlimit:10;" x1="552.049" y1="385.464" x2="554.754" y2="372.939"/>
						
							<line style="fill:none;stroke:#432934;stroke-width:1.6466;stroke-linecap:round;stroke-miterlimit:10;" x1="549.283" y1="383.922" x2="551.638" y2="371.116"/>
						
							<line style="fill:none;stroke:#432934;stroke-width:1.6466;stroke-linecap:round;stroke-miterlimit:10;" x1="639.946" y1="367.246" x2="642.304" y2="381.097"/>
						
							<line style="fill:none;stroke:#432934;stroke-width:1.6466;stroke-linecap:round;stroke-miterlimit:10;" x1="597.611" y1="396.436" x2="597.159" y2="379.207"/>
						
							<line style="fill:none;stroke:#432934;stroke-width:1.6466;stroke-linecap:round;stroke-miterlimit:10;" x1="600.473" y1="396.436" x2="599.837" y2="378.938"/>
						
							<line style="fill:none;stroke:#432934;stroke-width:1.6466;stroke-linecap:round;stroke-miterlimit:10;" x1="603.283" y1="396.151" x2="602.224" y2="378.747"/>
						
							<line style="fill:none;stroke:#432934;stroke-width:1.6466;stroke-linecap:round;stroke-miterlimit:10;" x1="606.026" y1="395.907" x2="604.881" y2="378.518"/>
						
							<line style="fill:none;stroke:#432934;stroke-width:1.6466;stroke-linecap:round;stroke-miterlimit:10;" x1="609.008" y1="395.411" x2="607.716" y2="378.254"/>
						
							<line style="fill:none;stroke:#432934;stroke-width:1.6466;stroke-linecap:round;stroke-miterlimit:10;" x1="611.846" y1="394.964" x2="610.415" y2="378.254"/>
						
							<line style="fill:none;stroke:#432934;stroke-width:1.6466;stroke-linecap:round;stroke-miterlimit:10;" x1="614.936" y1="393.825" x2="613.303" y2="377.878"/>
						
							<line style="fill:none;stroke:#432934;stroke-width:1.6466;stroke-linecap:round;stroke-miterlimit:10;" x1="617.988" y1="393.364" x2="616.003" y2="377.564"/>
						
							<line style="fill:none;stroke:#432934;stroke-width:1.6466;stroke-linecap:round;stroke-miterlimit:10;" x1="620.832" y1="392.71" x2="618.329" y2="377.181"/>
						
							<line style="fill:none;stroke:#432934;stroke-width:1.6466;stroke-linecap:round;stroke-miterlimit:10;" x1="623.355" y1="391.761" x2="620.832" y2="377.181"/>
						
							<line style="fill:none;stroke:#432934;stroke-width:1.6466;stroke-linecap:round;stroke-miterlimit:10;" x1="626.044" y1="390.576" x2="623.355" y2="376.858"/>
						
							<line style="fill:none;stroke:#432934;stroke-width:1.6466;stroke-linecap:round;stroke-miterlimit:10;" x1="628.915" y1="389.482" x2="626.044" y2="376.266"/>
						
							<line style="fill:none;stroke:#432934;stroke-width:1.6466;stroke-linecap:round;stroke-miterlimit:10;" x1="632.014" y1="388.434" x2="629.097" y2="375.445"/>
						
							<line style="fill:none;stroke:#432934;stroke-width:1.6466;stroke-linecap:round;stroke-miterlimit:10;" x1="634.748" y1="386.942" x2="631.74" y2="374.172"/>
						
							<line style="fill:none;stroke:#432934;stroke-width:1.6466;stroke-linecap:round;stroke-miterlimit:10;" x1="637.18" y1="385.464" x2="634.475" y2="372.939"/>
						
							<line style="fill:none;stroke:#432934;stroke-width:1.6466;stroke-linecap:round;stroke-miterlimit:10;" x1="639.946" y1="383.922" x2="637.591" y2="371.116"/>
					</g>
					<path style="fill:#432934;" d="M641.864,372.885c0,0-12.182,15.985-47.115,15.985h-0.252
						c-34.934,0-47.116-15.985-47.116-15.985l7.114-47.245l1.846-12.151c8.104,3.439,21.444,7.636,38.273,7.636
						c16.829,0,30.169-4.18,38.273-7.618l1.846,12.133L641.864,372.885z"/>
					<path style="fill:#E43048;" d="M638.134,348.21c-11.016,6.076-26.428,9.863-43.52,9.863s-32.52-3.787-43.52-9.88l0.609-3.985
						c10.95,5.878,26.132,9.534,42.911,9.534c16.779,0,31.977-3.655,42.927-9.534L638.134,348.21z"/>
					<path style="fill:#E43048;" d="M641.872,372.892c0,0-12.185,15.972-47.126,15.972h-0.247
						c-34.941,0-47.126-15.972-47.126-15.972l0.51-3.343c8.776,9.007,26.412,15.149,46.731,15.149
						c20.336,0,37.971-6.142,46.747-15.149L641.872,372.892z"/>
					<path style="fill:#E43048;" d="M632.887,313.507l8.985,59.385c0,0-0.722,0.924-1.445,1.562l-8.994-60.346L632.887,313.507z"/>
					<path style="fill:#E43048;" d="M556.341,313.507l-8.985,59.385c0,0,0.722,0.924,1.445,1.562l8.994-60.346L556.341,313.507z"/>
					<path style="fill:#E43048;" d="M595.784,321.107v67.741c-0.346,0.017-0.692,0.017-1.037,0.017h-0.247
						c-0.346,0-0.691,0-1.037-0.017v-67.741c0.379,0.017,0.774,0.017,1.153,0.017C595.01,321.123,595.388,321.123,595.784,321.107z"
						/>
					<path style="fill:#E43048;" d="M595.784,321.107v67.741c-0.346,0.017-0.692,0.017-1.037,0.017h-0.247
						c-0.346,0-0.691,0-1.037-0.017v-67.741c0.379,0.017,0.774,0.017,1.153,0.017C595.01,321.123,595.388,321.123,595.784,321.107z"
						/>
					<path style="fill:#E43048;" d="M599.768,388.749c-0.461,0.016-0.922,0.049-1.4,0.049l-0.494-67.725
						c0.478-0.016,0.939-0.033,1.4-0.066L599.768,388.749z"/>
					<path style="fill:#E43048;" d="M619.38,385.703c-0.445,0.132-0.906,0.247-1.383,0.362l-3.573-66.902
						c0.461-0.099,0.922-0.198,1.383-0.297L619.38,385.703z"/>
					<path style="fill:#E43048;" d="M623.134,384.501c-0.445,0.165-0.906,0.313-1.383,0.461l-4.429-66.424
						c0.478-0.115,0.939-0.23,1.383-0.346L623.134,384.501z"/>
					<path style="fill:#E43048;" d="M569.849,385.703c0.445,0.132,0.906,0.247,1.383,0.362l3.573-66.902
						c-0.461-0.099-0.922-0.198-1.383-0.297L569.849,385.703z"/>
					<path style="fill:#E43048;" d="M566.095,384.501c0.445,0.165,0.906,0.313,1.383,0.461l4.429-66.424
						c-0.478-0.115-0.939-0.23-1.383-0.346L566.095,384.501z"/>
					<path style="fill:#E43048;" d="M591.618,321.074l-0.494,67.741c-0.477-0.016-0.939-0.033-1.4-0.049l0.494-67.741
						C590.679,321.041,591.14,321.057,591.618,321.074z"/>
					<g>
						<path style="fill:#FFC266;" d="M606.924,370.419c0.025,0.368-0.478,0.703-1.124,0.747c-0.646,0.044-1.189-0.219-1.215-0.587
							c-0.025-0.368,0.478-0.703,1.124-0.747C606.355,369.787,606.899,370.05,606.924,370.419z"/>
						<path style="fill:#FFC266;" d="M613.014,370.003c0.025,0.368-0.478,0.703-1.124,0.747c-0.646,0.044-1.19-0.219-1.215-0.587
							c-0.025-0.368,0.478-0.703,1.124-0.747C612.445,369.372,612.989,369.635,613.014,370.003z"/>
						<path style="fill:#E43048;" d="M608.672,368.415c-0.368,0.025-0.703-0.478-0.747-1.124c-0.044-0.646,0.219-1.19,0.587-1.215
							c0.368-0.025,0.703,0.478,0.747,1.124C609.304,367.846,609.041,368.39,608.672,368.415z"/>
						<path style="fill:#E43048;" d="M609.088,374.505c-0.368,0.025-0.703-0.478-0.747-1.124c-0.044-0.646,0.219-1.19,0.587-1.215
							c0.369-0.025,0.703,0.478,0.747,1.124C609.719,373.936,609.456,374.48,609.088,374.505z"/>
					</g>
					<g>
						<path style="fill:#FFC266;" d="M605.61,336.169c0.025,0.368-0.478,0.703-1.124,0.747c-0.646,0.044-1.189-0.219-1.215-0.587
							c-0.025-0.368,0.478-0.703,1.124-0.747C605.041,335.538,605.585,335.801,605.61,336.169z"/>
						<path style="fill:#FFC266;" d="M611.7,335.754c0.025,0.368-0.478,0.703-1.124,0.747c-0.646,0.044-1.19-0.219-1.215-0.587
							c-0.025-0.368,0.478-0.703,1.123-0.747C611.131,335.122,611.675,335.385,611.7,335.754z"/>
						<path style="fill:#E43048;" d="M607.358,334.165c-0.369,0.025-0.703-0.478-0.747-1.124c-0.044-0.646,0.219-1.19,0.587-1.215
							c0.368-0.025,0.703,0.478,0.747,1.124C607.989,333.596,607.726,334.14,607.358,334.165z"/>
						<path style="fill:#E43048;" d="M607.773,340.255c-0.368,0.025-0.703-0.478-0.747-1.124c-0.044-0.646,0.219-1.189,0.587-1.215
							c0.369-0.025,0.703,0.478,0.747,1.124C608.405,339.686,608.142,340.23,607.773,340.255z"/>
					</g>
					<g>
						<path style="fill:#FFC266;" d="M582.305,370.419c-0.025,0.368,0.478,0.703,1.124,0.747c0.646,0.044,1.19-0.219,1.215-0.587
							c0.025-0.368-0.478-0.703-1.124-0.747C582.873,369.787,582.33,370.05,582.305,370.419z"/>
						<path style="fill:#FFC266;" d="M576.214,370.003c-0.025,0.368,0.478,0.703,1.124,0.747c0.646,0.044,1.189-0.219,1.215-0.587
							c0.025-0.368-0.478-0.703-1.124-0.747C576.783,369.372,576.24,369.635,576.214,370.003z"/>
						<path style="fill:#E43048;" d="M580.557,368.415c0.369,0.025,0.703-0.478,0.747-1.124c0.044-0.646-0.219-1.19-0.588-1.215
							c-0.368-0.025-0.703,0.478-0.747,1.124C579.925,367.846,580.188,368.39,580.557,368.415z"/>
						<path style="fill:#E43048;" d="M580.141,374.505c0.368,0.025,0.703-0.478,0.747-1.124c0.044-0.646-0.219-1.19-0.587-1.215
							c-0.369-0.025-0.703,0.478-0.747,1.124C579.51,373.936,579.773,374.48,580.141,374.505z"/>
					</g>
					<g>
						<path style="fill:#FFC266;" d="M583.619,336.169c-0.025,0.368,0.478,0.703,1.124,0.747c0.646,0.044,1.189-0.219,1.215-0.587
							c0.025-0.368-0.478-0.703-1.124-0.747C584.188,335.538,583.644,335.801,583.619,336.169z"/>
						<path style="fill:#FFC266;" d="M577.529,335.754c-0.025,0.368,0.478,0.703,1.124,0.747c0.646,0.044,1.19-0.219,1.215-0.587
							c0.025-0.368-0.478-0.703-1.124-0.747C578.098,335.122,577.554,335.385,577.529,335.754z"/>
						<path style="fill:#E43048;" d="M581.871,334.165c0.369,0.025,0.703-0.478,0.747-1.124c0.044-0.646-0.219-1.19-0.587-1.215
							c-0.368-0.025-0.703,0.478-0.747,1.124C581.24,333.596,581.503,334.14,581.871,334.165z"/>
						<path style="fill:#E43048;" d="M581.456,340.255c0.368,0.025,0.703-0.478,0.747-1.124c0.044-0.646-0.219-1.189-0.588-1.215
							c-0.368-0.025-0.703,0.478-0.747,1.124C580.824,339.686,581.087,340.23,581.456,340.255z"/>
					</g>
					<g>
						<path style="fill:#FFC266;" d="M639.946,360.148l-1.597,0.428l-0.906,0.247c-0.313,0.082-0.626-0.082-0.708-0.395
							c-0.017-0.049-0.017-0.099-0.017-0.148c0-0.263,0.165-0.494,0.428-0.56l1.037-0.28l1.581-0.445L639.946,360.148z"/>
						<path style="fill:#FFC266;" d="M640.357,362.848l-1.597,0.445l-0.856,0.231c-0.296,0.082-0.609-0.099-0.708-0.395
							c-0.017-0.049-0.017-0.099-0.017-0.148c0-0.263,0.165-0.494,0.428-0.56l0.988-0.263l1.581-0.445L640.357,362.848z"/>
						<path style="fill:#FFC266;" d="M640.769,365.549l-1.614,0.445l-0.856,0.23c-0.297,0.082-0.609-0.099-0.692-0.395
							c-0.016-0.049-0.016-0.115-0.016-0.165c0-0.247,0.148-0.478,0.412-0.543l0.988-0.264l1.597-0.445L640.769,365.549z"/>
						<path style="fill:#FFC266;" d="M641.164,368.2l-1.614,0.428l-0.938,0.263c-0.313,0.082-0.626-0.099-0.708-0.395
							c-0.016-0.049-0.016-0.099-0.016-0.148c0-0.264,0.165-0.494,0.412-0.56l1.087-0.296l1.597-0.445L641.164,368.2z"/>
					</g>
					<g>
						<path style="fill:#FFC266;" d="M635.704,332.158l-1.597,0.428l-0.906,0.247c-0.313,0.082-0.626-0.082-0.708-0.395
							c-0.017-0.049-0.017-0.099-0.017-0.148c0-0.263,0.165-0.494,0.428-0.56l1.037-0.28l1.581-0.445L635.704,332.158z"/>
						<path style="fill:#FFC266;" d="M636.116,334.859l-1.597,0.445l-0.856,0.23c-0.296,0.082-0.609-0.099-0.708-0.395
							c-0.017-0.049-0.017-0.099-0.017-0.148c0-0.263,0.165-0.494,0.428-0.56l0.988-0.263l1.581-0.445L636.116,334.859z"/>
						<path style="fill:#FFC266;" d="M636.527,337.559l-1.614,0.445l-0.856,0.23c-0.297,0.082-0.609-0.099-0.692-0.395
							c-0.016-0.049-0.016-0.115-0.016-0.165c0-0.247,0.148-0.478,0.412-0.543l0.988-0.263l1.597-0.445L636.527,337.559z"/>
						<path style="fill:#FFC266;" d="M636.922,340.21l-1.614,0.428l-0.938,0.263c-0.313,0.082-0.626-0.099-0.708-0.395
							c-0.016-0.049-0.016-0.099-0.016-0.148c0-0.264,0.165-0.494,0.412-0.56l1.087-0.296l1.597-0.445L636.922,340.21z"/>
					</g>
					<g>
						<path style="fill:#FFC266;" d="M549.283,360.148l1.597,0.428l0.906,0.247c0.313,0.082,0.626-0.082,0.708-0.395
							c0.016-0.049,0.016-0.099,0.016-0.148c0-0.263-0.165-0.494-0.428-0.56l-1.037-0.28l-1.581-0.445L549.283,360.148z"/>
						<path style="fill:#FFC266;" d="M548.871,362.848l1.597,0.445l0.856,0.231c0.296,0.082,0.609-0.099,0.708-0.395
							c0.016-0.049,0.016-0.099,0.016-0.148c0-0.263-0.165-0.494-0.428-0.56l-0.988-0.263l-1.581-0.445L548.871,362.848z"/>
						<path style="fill:#FFC266;" d="M548.46,365.549l1.614,0.445l0.856,0.23c0.296,0.082,0.609-0.099,0.692-0.395
							c0.016-0.049,0.016-0.115,0.016-0.165c0-0.247-0.148-0.478-0.412-0.543l-0.988-0.264l-1.597-0.445L548.46,365.549z"/>
						<path style="fill:#FFC266;" d="M548.065,368.2l1.614,0.428l0.938,0.263c0.313,0.082,0.626-0.099,0.708-0.395
							c0.016-0.049,0.016-0.099,0.016-0.148c0-0.264-0.165-0.494-0.412-0.56l-1.087-0.296l-1.597-0.445L548.065,368.2z"/>
					</g>
					<g>
						<path style="fill:#FFC266;" d="M553.525,332.158l1.597,0.428l0.906,0.247c0.313,0.082,0.626-0.082,0.708-0.395
							c0.016-0.049,0.016-0.099,0.016-0.148c0-0.263-0.165-0.494-0.428-0.56l-1.037-0.28l-1.581-0.445L553.525,332.158z"/>
						<path style="fill:#FFC266;" d="M553.113,334.859l1.597,0.445l0.856,0.23c0.296,0.082,0.609-0.099,0.708-0.395
							c0.016-0.049,0.016-0.099,0.016-0.148c0-0.263-0.165-0.494-0.428-0.56l-0.988-0.263l-1.581-0.445L553.113,334.859z"/>
						<path style="fill:#FFC266;" d="M552.701,337.559l1.614,0.445l0.856,0.23c0.296,0.082,0.609-0.099,0.692-0.395
							c0.016-0.049,0.016-0.115,0.016-0.165c0-0.247-0.148-0.478-0.412-0.543l-0.988-0.263l-1.597-0.445L552.701,337.559z"/>
						<path style="fill:#FFC266;" d="M552.306,340.21l1.614,0.428l0.938,0.263c0.313,0.082,0.626-0.099,0.708-0.395
							c0.016-0.049,0.016-0.099,0.016-0.148c0-0.264-0.165-0.494-0.412-0.56l-1.087-0.296l-1.597-0.445L552.306,340.21z"/>
					</g>
					<polyline style="fill:none;stroke:#FFC266;stroke-width:1.2349;stroke-miterlimit:10;" points="639.902,370.933 
						638.633,374.027 635.912,374.027 634.557,377.137 631.433,376.684 629.758,379.69 626.338,379.026 624.653,381.937 
						621.024,380.913 618.977,383.69 615.609,382.376 613.369,384.962 610.337,383.424 607.968,385.746 605.119,384.139 
						603.244,386.197 600.362,384.536 597.611,386.942 594.615,384.699 591.618,386.942 588.867,384.536 585.985,386.197 
						584.11,384.139 581.261,385.746 578.893,383.424 575.86,384.962 573.62,382.376 570.252,383.69 568.205,380.913 
						564.576,381.937 562.891,379.026 559.471,379.69 557.796,376.684 554.672,377.137 553.317,374.027 550.596,374.027 
						549.327,370.933 					"/>
					<polyline style="fill:none;stroke:#FFC266;stroke-width:1.2349;stroke-miterlimit:10;" points="635.912,347.556 
						634.557,350.666 631.433,350.212 629.758,353.218 626.338,352.555 624.653,355.466 621.024,354.442 618.977,357.218 
						615.609,355.904 613.369,358.491 610.337,356.953 607.968,359.275 605.119,357.668 603.244,359.725 600.362,358.064 
						597.611,360.471 594.615,358.227 591.618,360.471 588.867,358.064 585.985,359.725 584.11,357.668 581.261,359.275 
						578.893,356.953 575.86,358.491 573.62,355.904 570.252,357.218 568.205,354.442 564.576,355.466 562.891,352.555 
						559.471,353.218 557.796,350.212 554.672,350.666 553.317,347.556 					"/>
				</g>
			</g>
			<g>
				<g>
					<path style="fill:#FFAB91;" d="M642.828,231.962l-26.902-8.682h-21.031h-0.125H573.74l-26.902,8.682
						c0,0,1.405,58.837,1.647,78.295c0,0,16.169,11.205,46.286,11.236v0.001c0.021,0,0.041-0.001,0.062-0.001
						s0.041,0.001,0.062,0.001v-0.001c30.116-0.031,46.286-11.236,46.286-11.236C641.423,290.798,642.828,231.962,642.828,231.962z"
						/>
					<path style="fill:#FF9F85;" d="M641.691,282.872c-0.231,10.999-0.428,21.192-0.51,27.383c0,0-16.17,11.213-46.286,11.23v0.016
						c-0.016,0-0.033-0.016-0.066-0.016c-0.016,0-0.033,0.016-0.066,0.016v-0.016c-30.117-0.017-46.27-11.23-46.27-11.23
						c-0.049-3.573-0.132-8.447-0.231-14.062c10.654,7.904,24.814,12.712,40.358,12.712
						C611.657,308.905,631.647,298.351,641.691,282.872z"/>
				</g>
				<g>
					<path style="fill:#FFAB91;" d="M615.745,211.572v15.626c0,0-7.443,7.261-16.268,8.464h-9.468
						c-8.842-1.202-16.268-8.464-16.268-8.464v-15.626H615.745z"/>
					<path style="fill:#FF9376;" d="M615.745,211.572v11.707c-6.208,1.021-13.189,1.647-21.011,1.647
						c-7.805,0-14.803-0.626-20.994-1.647v-11.707H615.745z"/>
				</g>
				<g>
					<g>
						<g>
							<path style="fill:#E97D5D;" d="M504.233,334.935l0.115,14.437c0.019,2.344-1.852,4.312-4.197,4.31
								c-0.039,0-0.078,0-0.117-0.001c-2.351-0.037-4.207-2.02-4.155-4.371l0.305-13.69L504.233,334.935z"/>
							<path style="fill:#FD8465;" d="M503.565,352.359c1.116,0.538,2.407,0.58,3.539,0.117c0.037-0.015,0.073-0.03,0.109-0.046
								c2.034-0.884,3.089-3.176,2.443-5.341l-2.314-7.76c-0.482-1.616-0.489-3.327-0.02-4.948l4.122-14.25l-10.02-0.507
								l-3.238,15.74c-0.307,1.493-0.243,3.056,0.185,4.52l2.832,9.688C501.559,350.791,502.42,351.807,503.565,352.359z"/>
							<path style="fill:#FFAB91;" d="M509.267,339.244c1.212,1.213,2.865,1.764,4.539,1.509c0.123-0.019,0.244-0.041,0.362-0.067
								c2.222-0.482,3.897-2.356,4.173-4.664c0.397-3.316,1.245-6.545,1.504-7.485c5.807-5.935,5.313-8.635,4.872-12.282
								c-0.487-4.033-2.429-6.612-2.511-6.72l-0.385-0.504l-0.631,0.061c-2.037,0.196-3.875,0.712-5.485,1.531
								c-2.278,1.159-4.094,2.635-5.336,4.897c-1.691,3.083-1.745,6.418-1.949,9.834c-0.182,3.044-0.241,6.14-0.704,9.158
								C507.451,336.237,508.031,338.006,509.267,339.244z"/>
							<g>
								<path style="fill:#FFAB91;" d="M521.93,309.194c0,0,4.788,13.59-16.219,21.105c0,0-1.948,8.317-2.656,15.63
									c-0.172,1.775-1.862,3.64-3.572,4.143c-0.017,0.005-0.034,0.01-0.051,0.015c-3.161,0.904-6.232-1.749-5.933-5.023
									c0.422-4.614,0.765-10.793,1.341-16.529c0.127-1.264,0.499-2.49,1.075-3.623c2.986-5.874,3.856-7.748,6.001-11.979
									c2.651-5.229,8.443-8.285,14.182-7.085C518.242,306.296,520.318,307.289,521.93,309.194z"/>
							</g>
						</g>
					</g>
					<path style="fill:#FFAB91;" d="M547.159,230.36c0,0-0.583,0.105-1.52,0.394c-6.115,1.889-10.853,6.761-12.823,12.851
						l-11.158,34.502l-16.007,31.626c0,0,6.889,9.146,18.445,10.534l18.461-26.304c1.826-2.602,3.238-5.471,4.186-8.506
						l7.793-24.941C554.536,260.517,555.96,241.402,547.159,230.36z"/>
					<path style="fill:#EB7D5D;" d="M547.956,281.551l-0.364-16.761c-0.013-0.583-0.523-1.029-1.102-0.962l0,0
						c-0.514,0.059-0.897,0.504-0.877,1.021l0.82,21.577L547.956,281.551z"/>
				</g>
				<g>
					<g>
						<g>
							<path style="fill:#E97D5D;" d="M685.557,334.935l-0.115,14.437c-0.019,2.344,1.852,4.312,4.197,4.31
								c0.039,0,0.078,0,0.118-0.001c2.351-0.037,4.207-2.02,4.154-4.371l-0.304-13.69L685.557,334.935z"/>
							<path style="fill:#FD8465;" d="M686.225,352.359c-1.116,0.538-2.407,0.58-3.539,0.117c-0.037-0.015-0.073-0.03-0.109-0.046
								c-2.034-0.884-3.089-3.176-2.443-5.341l2.314-7.76c0.482-1.616,0.489-3.327,0.02-4.948l-4.122-14.25l10.02-0.507l3.238,15.74
								c0.307,1.493,0.243,3.056-0.185,4.52l-2.832,9.688C688.231,350.791,687.37,351.807,686.225,352.359z"/>
							<path style="fill:#FFAB91;" d="M680.523,339.244c-1.212,1.213-2.865,1.764-4.539,1.509c-0.123-0.019-0.244-0.041-0.362-0.067
								c-2.222-0.482-3.897-2.356-4.173-4.664c-0.397-3.316-1.245-6.545-1.504-7.485c-5.807-5.935-5.313-8.635-4.872-12.282
								c0.487-4.033,2.429-6.612,2.511-6.72l0.385-0.504l0.631,0.061c2.037,0.196,3.875,0.712,5.485,1.531
								c2.278,1.159,4.094,2.635,5.336,4.897c1.692,3.083,1.745,6.418,1.949,9.834c0.182,3.044,0.241,6.14,0.705,9.158
								C682.339,336.237,681.759,338.006,680.523,339.244z"/>
							<g>
								<path style="fill:#FFAB91;" d="M667.86,309.194c0,0-4.788,13.59,16.219,21.105c0,0,1.948,8.317,2.656,15.63
									c0.172,1.775,1.862,3.64,3.572,4.143c0.017,0.005,0.034,0.01,0.051,0.015c3.161,0.904,6.232-1.749,5.933-5.023
									c-0.422-4.614-0.765-10.793-1.341-16.529c-0.127-1.264-0.499-2.49-1.075-3.623c-2.986-5.874-3.856-7.748-6.001-11.979
									c-2.651-5.229-8.443-8.285-14.182-7.085C671.548,306.296,669.472,307.289,667.86,309.194z"/>
							</g>
						</g>
					</g>
					<path style="fill:#FFAB91;" d="M642.631,230.36c0,0,0.583,0.105,1.52,0.394c6.116,1.889,10.853,6.761,12.823,12.851
						l11.158,34.502l16.007,31.626c0,0-6.889,9.146-18.445,10.534l-18.46-26.304c-1.826-2.602-3.239-5.471-4.187-8.506
						l-7.793-24.941C635.255,260.517,633.83,241.402,642.631,230.36z"/>
					<path style="fill:#EB7D5D;" d="M641.834,281.551l0.364-16.761c0.013-0.583,0.523-1.029,1.103-0.962l0,0
						c0.514,0.059,0.897,0.504,0.877,1.021l-0.82,21.577L641.834,281.551z"/>
				</g>
				<g>
					<g>
						<path style="fill:#E43048;" d="M538.42,234.182l38.001,41.132h36.618l2.601-2.569l-20.91-22.029l-25.319-26.683l-30.548,8.453
							C538.15,232.682,537.904,233.624,538.42,234.182z"/>
						<polygon style="fill:#432934;" points="566.393,224.87 613.586,274.773 613.039,275.314 611.715,275.314 564.518,225.391 
													"/>
						<polygon style="fill:#432934;" points="562.394,225.98 608.631,275.314 606.086,275.314 560.523,226.499 						"/>
						<polygon style="fill:#432934;" points="554.967,228.041 598.814,275.314 585.648,275.314 545.045,230.795 						"/>
						<polygon style="fill:#432934;" points="541.987,231.621 581.599,275.314 578.942,275.314 539.93,232.19 						"/>
						<g>
							<g>
								<polygon style="fill:#FFFFFF;" points="541.888,234.373 542.742,235.3 544.092,233.931 543.238,233.004 								"/>
								<polygon style="fill:#FFFFFF;" points="543.636,236.29 544.49,237.237 545.84,235.868 544.986,234.921 								"/>
							</g>
							<g>
								<polygon style="fill:#FFFFFF;" points="566.353,224.875 564.526,225.38 565.181,226.076 								"/>
								<polygon style="fill:#FFFFFF;" points="562.957,226.56 561.726,227.802 562.6,228.729 563.811,227.486 								"/>
								<polygon style="fill:#FFFFFF;" points="548.342,241.491 549.196,242.418 550.546,241.049 549.692,240.101 								"/>
								<polygon style="fill:#FFFFFF;" points="567.286,225.823 566.095,227.044 566.969,227.971 568.16,226.749 								"/>
								<polygon style="fill:#FFFFFF;" points="563.513,229.698 564.367,230.624 565.578,229.382 564.725,228.455 								"/>
								<polygon style="fill:#FFFFFF;" points="550.089,243.408 550.923,244.355 552.274,242.965 551.44,242.039 								"/>
							</g>
							<g>
								<polygon style="fill:#FFFFFF;" points="572.092,230.898 570.9,232.141 571.774,233.046 572.966,231.825 								"/>
								<polygon style="fill:#FFFFFF;" points="568.279,234.815 569.133,235.742 570.364,234.478 569.51,233.552 								"/>
								<polygon style="fill:#FFFFFF;" points="554.776,248.61 555.63,249.536 556.98,248.146 556.146,247.22 								"/>
								<polygon style="fill:#FFFFFF;" points="573.879,232.794 572.688,234.015 573.561,234.942 574.753,233.72 								"/>
								<polygon style="fill:#FFFFFF;" points="570.047,236.711 570.92,237.637 572.151,236.374 571.278,235.447 								"/>
								<polygon style="fill:#FFFFFF;" points="556.523,250.526 557.377,251.474 558.727,250.084 557.874,249.136 								"/>
							</g>
							<g>
								<polygon style="fill:#FFFFFF;" points="578.685,237.869 577.493,239.09 578.367,240.017 579.558,238.796 								"/>
								<polygon style="fill:#FFFFFF;" points="574.813,241.828 575.686,242.755 576.937,241.47 576.063,240.544 								"/>
								<polygon style="fill:#FFFFFF;" points="561.21,255.728 562.064,256.654 563.434,255.264 562.58,254.338 								"/>
								<polygon style="fill:#FFFFFF;" points="580.472,239.764 579.281,240.986 580.134,241.913 581.346,240.67 								"/>
								<polygon style="fill:#FFFFFF;" points="576.6,243.724 577.453,244.65 578.704,243.366 577.851,242.46 								"/>
								<polygon style="fill:#FFFFFF;" points="562.957,257.644 563.811,258.592 565.181,257.202 564.328,256.254 								"/>
							</g>
							<g>
								<polygon style="fill:#FFFFFF;" points="585.277,244.84 584.086,246.061 584.94,246.988 586.151,245.766 								"/>
								<polygon style="fill:#FFFFFF;" points="581.365,248.841 582.239,249.768 583.49,248.483 582.617,247.557 								"/>
								<polygon style="fill:#FFFFFF;" points="567.664,262.846 568.517,263.773 569.888,262.383 569.034,261.435 								"/>
								<polygon style="fill:#FFFFFF;" points="587.065,246.714 585.853,247.957 586.727,248.862 587.938,247.641 								"/>
								<polygon style="fill:#FFFFFF;" points="583.133,250.737 584.007,251.663 585.258,250.357 584.404,249.452 								"/>
								<polygon style="fill:#FFFFFF;" points="569.411,264.763 570.245,265.71 571.615,264.299 570.781,263.372 								"/>
							</g>
							<g>
								<polygon style="fill:#FFFFFF;" points="591.87,251.811 590.659,253.032 591.533,253.959 592.744,252.716 								"/>
								<polygon style="fill:#FFFFFF;" points="587.919,255.854 588.772,256.76 590.043,255.475 589.19,254.548 								"/>
								<polygon style="fill:#FFFFFF;" points="574.097,269.964 574.951,270.891 576.322,269.48 575.468,268.553 								"/>
								<polygon style="fill:#FFFFFF;" points="593.658,253.685 592.446,254.928 593.32,255.854 594.531,254.612 								"/>
								<polygon style="fill:#FFFFFF;" points="589.686,257.75 590.56,258.676 591.811,257.371 590.957,256.444 								"/>
								<polygon style="fill:#FFFFFF;" points="575.845,271.881 576.699,272.828 578.069,271.417 577.215,270.47 								"/>
							</g>
							<g>
								<polygon style="fill:#FFFFFF;" points="598.463,258.76 597.252,260.003 598.126,260.93 599.337,259.687 								"/>
								<polygon style="fill:#FFFFFF;" points="594.452,262.846 595.326,263.773 596.596,262.467 595.743,261.54 								"/>
								<polygon style="fill:#FFFFFF;" points="600.25,260.656 599.039,261.898 599.893,262.804 601.104,261.582 								"/>
								<polygon style="fill:#FFFFFF;" points="596.239,264.763 597.093,265.689 598.384,264.362 597.51,263.457 								"/>
							</g>
							<g>
								<polygon style="fill:#FFFFFF;" points="605.056,265.731 603.825,266.974 604.698,267.901 605.91,266.658 								"/>
								<polygon style="fill:#FFFFFF;" points="601.005,269.859 601.859,270.786 603.15,269.48 602.296,268.553 								"/>
								<polygon style="fill:#FFFFFF;" points="606.843,267.627 605.612,268.869 606.486,269.775 607.697,268.532 								"/>
								<polygon style="fill:#FFFFFF;" points="602.772,271.776 603.626,272.681 604.937,271.354 604.063,270.449 								"/>
							</g>
							<g>
								<polygon style="fill:#FFFFFF;" points="610.418,273.945 611.291,274.871 612.503,273.608 611.649,272.702 								"/>
								<polygon style="fill:#FFFFFF;" points="612.701,275.314 613.039,275.314 613.595,274.766 613.416,274.576 								"/>
							</g>
						</g>
						<path style="opacity:0.2;fill:#432934;" d="M557.731,255.084c0,0,19.028,16.274,53.052,12.543l4.858,5.117l-2.601,2.569
							h-36.618L557.731,255.084z"/>
					</g>
					<polygon style="fill:#C2293D;" points="594.73,250.716 573.82,272.744 572.018,270.974 593.065,248.961 					"/>
					<g>
						<path style="fill:#E43048;" d="M651.04,234.182l-38.001,41.132h-36.618l-2.601-2.569l20.91-22.029l25.319-26.683l30.548,8.453
							C651.31,232.682,651.556,233.624,651.04,234.182z"/>
						<polygon style="fill:#432934;" points="623.067,224.87 575.874,274.773 576.421,275.314 577.745,275.314 624.941,225.391 
													"/>
						<polygon style="fill:#432934;" points="627.066,225.98 580.829,275.314 583.374,275.314 628.937,226.499 						"/>
						<polygon style="fill:#432934;" points="634.492,228.041 590.646,275.314 603.812,275.314 644.415,230.795 						"/>
						<polygon style="fill:#432934;" points="647.473,231.621 607.861,275.314 610.517,275.314 649.529,232.19 						"/>
						<g>
							<g>
								<polygon style="fill:#FFFFFF;" points="647.572,234.373 646.718,235.3 645.367,233.931 646.221,233.004 								"/>
								<polygon style="fill:#FFFFFF;" points="645.824,236.29 644.97,237.237 643.62,235.868 644.474,234.921 								"/>
							</g>
							<g>
								<polygon style="fill:#FFFFFF;" points="623.107,224.875 624.934,225.38 624.278,226.076 								"/>
								<polygon style="fill:#FFFFFF;" points="626.503,226.56 627.734,227.802 626.86,228.729 625.649,227.486 								"/>
								<polygon style="fill:#FFFFFF;" points="641.118,241.491 640.264,242.418 638.914,241.049 639.768,240.101 								"/>
								<polygon style="fill:#FFFFFF;" points="622.173,225.823 623.365,227.044 622.491,227.971 621.3,226.749 								"/>
								<polygon style="fill:#FFFFFF;" points="625.946,229.698 625.092,230.624 623.881,229.382 624.735,228.455 								"/>
								<polygon style="fill:#FFFFFF;" points="639.37,243.408 638.536,244.355 637.186,242.965 638.02,242.039 								"/>
							</g>
							<g>
								<polygon style="fill:#FFFFFF;" points="617.368,230.898 618.559,232.141 617.686,233.046 616.494,231.825 								"/>
								<polygon style="fill:#FFFFFF;" points="621.181,234.815 620.327,235.742 619.095,234.478 619.949,233.552 								"/>
								<polygon style="fill:#FFFFFF;" points="634.684,248.61 633.83,249.536 632.48,248.146 633.314,247.22 								"/>
								<polygon style="fill:#FFFFFF;" points="615.581,232.794 616.772,234.015 615.898,234.942 614.707,233.72 								"/>
								<polygon style="fill:#FFFFFF;" points="619.413,236.711 618.539,237.637 617.308,236.374 618.182,235.447 								"/>
								<polygon style="fill:#FFFFFF;" points="632.936,250.526 632.082,251.474 630.732,250.084 631.586,249.136 								"/>
							</g>
							<g>
								<polygon style="fill:#FFFFFF;" points="610.775,237.869 611.966,239.09 611.093,240.017 609.901,238.796 								"/>
								<polygon style="fill:#FFFFFF;" points="614.647,241.828 613.774,242.755 612.523,241.47 613.396,240.544 								"/>
								<polygon style="fill:#FFFFFF;" points="628.25,255.728 627.396,256.654 626.026,255.264 626.88,254.338 								"/>
								<polygon style="fill:#FFFFFF;" points="608.988,239.764 610.179,240.986 609.325,241.913 608.114,240.67 								"/>
								<polygon style="fill:#FFFFFF;" points="612.86,243.724 612.006,244.65 610.755,243.366 611.609,242.46 								"/>
								<polygon style="fill:#FFFFFF;" points="626.503,257.644 625.649,258.592 624.278,257.202 625.132,256.254 								"/>
							</g>
							<g>
								<polygon style="fill:#FFFFFF;" points="604.182,244.84 605.374,246.061 604.52,246.988 603.308,245.766 								"/>
								<polygon style="fill:#FFFFFF;" points="608.094,248.841 607.22,249.768 605.969,248.483 606.843,247.557 								"/>
								<polygon style="fill:#FFFFFF;" points="621.796,262.846 620.942,263.773 619.572,262.383 620.426,261.435 								"/>
								<polygon style="fill:#FFFFFF;" points="602.395,246.714 603.606,247.957 602.732,248.862 601.521,247.641 								"/>
								<polygon style="fill:#FFFFFF;" points="606.327,250.737 605.453,251.663 604.202,250.357 605.056,249.452 								"/>
								<polygon style="fill:#FFFFFF;" points="620.049,264.763 619.215,265.71 617.844,264.299 618.678,263.372 								"/>
							</g>
							<g>
								<polygon style="fill:#FFFFFF;" points="597.589,251.811 598.801,253.032 597.927,253.959 596.716,252.716 								"/>
								<polygon style="fill:#FFFFFF;" points="601.541,255.854 600.687,256.76 599.416,255.475 600.27,254.548 								"/>
								<polygon style="fill:#FFFFFF;" points="615.362,269.964 614.508,270.891 613.138,269.48 613.992,268.553 								"/>
								<polygon style="fill:#FFFFFF;" points="595.802,253.685 597.014,254.928 596.14,255.854 594.928,254.612 								"/>
								<polygon style="fill:#FFFFFF;" points="599.774,257.75 598.9,258.676 597.649,257.371 598.503,256.444 								"/>
								<polygon style="fill:#FFFFFF;" points="613.615,271.881 612.761,272.828 611.391,271.417 612.245,270.47 								"/>
							</g>
							<g>
								<polygon style="fill:#FFFFFF;" points="590.997,258.76 592.208,260.003 591.334,260.93 590.123,259.687 								"/>
								<polygon style="fill:#FFFFFF;" points="595.008,262.846 594.134,263.773 592.863,262.467 593.717,261.54 								"/>
								<polygon style="fill:#FFFFFF;" points="589.209,260.656 590.421,261.898 589.567,262.804 588.355,261.582 								"/>
								<polygon style="fill:#FFFFFF;" points="593.221,264.763 592.367,265.689 591.076,264.362 591.95,263.457 								"/>
							</g>
							<g>
								<polygon style="fill:#FFFFFF;" points="584.404,265.731 585.635,266.974 584.761,267.901 583.55,266.658 								"/>
								<polygon style="fill:#FFFFFF;" points="588.455,269.859 587.601,270.786 586.31,269.48 587.164,268.553 								"/>
								<polygon style="fill:#FFFFFF;" points="582.617,267.627 583.848,268.869 582.974,269.775 581.763,268.532 								"/>
								<polygon style="fill:#FFFFFF;" points="586.687,271.776 585.834,272.681 584.523,271.354 585.397,270.449 								"/>
							</g>
							<g>
								<polygon style="fill:#FFFFFF;" points="579.042,273.945 578.168,274.871 576.957,273.608 577.811,272.702 								"/>
								<polygon style="fill:#FFFFFF;" points="576.758,275.314 576.421,275.314 575.865,274.766 576.044,274.576 								"/>
							</g>
						</g>
						<path style="opacity:0.2;fill:#432934;" d="M631.729,255.084c0,0-19.027,16.274-53.052,12.543l-4.858,5.117l2.601,2.569
							h36.618L631.729,255.084z"/>
					</g>
				</g>
			</g>
			<g>
				<g>
					<path style="fill:#432934;" d="M667.425,171.93l-0.293-30.618c0,0,9.946-54.161-71.631-54.314v-0.004
						c-0.056,0-0.109,0.002-0.165,0.002c-0.056,0-0.109-0.002-0.165-0.002v0.004c-81.578,0.152-71.631,54.314-71.631,54.314
						l-0.294,30.618l71.496,21.559h1.187L667.425,171.93z"/>
					
						<ellipse transform="matrix(0.2685 -0.9633 0.9633 0.2685 355.0253 681.0424)" style="fill:#4A2D39;" cx="625.933" cy="106.761" rx="13.543" ry="25.166"/>
				</g>
				<g>
					<path style="fill:#FFAB91;" d="M642.641,177.847c0,0,18.198-15.362,30.363-6.213c4.508,3.391,6.532,9.13,5.822,14.726
						c-1.077,8.489-7.465,19.942-36.185,11.863V177.847z"/>
					<g>
						<path style="fill:#FF9376;" d="M667.478,189.727c-1.552,1.58-4.087,2.933-8.159,3.488c-3.488,0.484-8.13,0.37-14.253-0.684
							v-7.333c0,0,5.097-4.613,10.907-6.92c1.936-0.769,3.944-1.267,5.866-1.267C668.617,177.04,672.233,184.886,667.478,189.727z"
							/>
						<path style="fill:#EB7D5D;" d="M662.793,190.937c-0.84,0.854-1.965,1.637-3.474,2.278c-3.488,0.484-8.13,0.37-14.253-0.684
							v-7.333c0,0,5.097-4.613,10.907-6.92c0.399-0.043,0.783-0.057,1.167-0.057C663.932,178.236,667.535,186.096,662.793,190.937z"
							/>
					</g>
				</g>
				<g>
					<path style="fill:#FFAB91;" d="M546.838,177.847c0,0-18.198-15.362-30.363-6.213c-4.508,3.391-6.532,9.13-5.822,14.726
						c1.077,8.489,7.465,19.942,36.185,11.863V177.847z"/>
					<g>
						<path style="fill:#FF9376;" d="M522.002,189.727c1.552,1.58,4.086,2.933,8.159,3.488c3.488,0.484,8.13,0.37,14.253-0.684
							v-7.333c0,0-5.097-4.613-10.907-6.92c-1.936-0.769-3.944-1.267-5.866-1.267C520.862,177.04,517.246,184.886,522.002,189.727z"
							/>
						<path style="fill:#EB7D5D;" d="M526.686,190.937c0.84,0.854,1.965,1.637,3.474,2.278c3.488,0.484,8.13,0.37,14.253-0.684
							v-7.333c0,0-5.097-4.613-10.907-6.92c-0.399-0.043-0.783-0.057-1.168-0.057C525.547,178.236,521.945,186.096,526.686,190.937z
							"/>
					</g>
				</g>
				<g>
					<path style="fill:#FFAB91;" d="M637.022,212.494c-9.353,4.1-23.25,7.986-42.285,7.986c-19.035,0-32.916-3.886-42.285-7.986
						c-9.336-4.084-15.116-13.617-14.688-23.81l1.745-46.401c0,0,0,0,0.016-0.016c0.51-0.197,8.497-3.622,11.213-13.123
						c0,0,14.359-3.326,43.997-3.326c29.655,0,44.195,3.326,44.195,3.326c2.569,8.974,9.83,12.531,11.032,13.074l1.762,46.467
						C652.138,198.876,646.375,208.41,637.022,212.494z"/>
					<path style="fill:#FF9376;" d="M650.137,142.282c0,0,0,0-0.016-0.016c-0.51-0.197-8.497-3.622-11.213-13.123
						c0,0-14.358-3.326-43.997-3.326h-0.165h-0.165c-29.639,0-43.997,3.326-43.997,3.326c-2.717,9.501-10.703,12.926-11.213,13.123
						c-0.016,0.016-0.016,0.016-0.016,0.016l-0.263,6.998c0,0,10.258-2.684,15.165-14.507c0,0,8.743-3.079,40.49-3.079
						c31.747,0,40.49,3.079,40.49,3.079c4.907,11.823,15.165,14.507,15.165,14.507L650.137,142.282z"/>
				</g>
				<g>
					<path style="fill:#432934;" d="M555.106,154.043c1.847-1.078,4.723-2.316,8.598-2.71c2.034-0.207,3.524-2.007,3.273-4.035l0,0
						c-0.246-1.991-2.062-3.387-4.053-3.14c-3.062,0.379-7.53,1.594-11.321,5.245c-0.925,0.891-1.123,2.307-0.528,3.445l0,0
						C551.841,154.313,553.677,154.877,555.106,154.043z"/>
					<path style="fill:#432934;" d="M634.374,154.043c-1.847-1.078-4.723-2.316-8.597-2.71c-2.034-0.207-3.524-2.007-3.273-4.035
						l0,0c0.246-1.991,2.062-3.387,4.053-3.14c3.062,0.379,7.53,1.594,11.321,5.245c0.925,0.891,1.123,2.307,0.528,3.445l0,0
						C637.638,154.313,635.803,154.877,634.374,154.043z"/>
					<g>
						<g>
							<path style="fill:#F28468;" d="M600.727,182.677c0,3.217-2.608,5.825-5.825,5.825c-3.217,0-5.825-2.608-5.825-5.825
								c0-3.217,2.608-5.825,5.825-5.825C598.118,176.852,600.727,179.46,600.727,182.677z"/>
							<circle style="fill:#FD9176;" cx="595.501" cy="182.03" r="3.524"/>
						</g>
						<path d="M600.093,185.263c0.413-0.783,0.626-1.652,0.626-2.591c0-3.218-2.606-5.823-5.823-5.823
							c-3.161,0-5.738,2.52-5.809,5.667c-0.142-0.513-0.214-1.054-0.214-1.609c0-3.574,2.89-6.464,6.464-6.464
							c3.56,0,6.464,2.89,6.464,6.464C601.802,182.586,601.161,184.124,600.093,185.263z"/>
					</g>
					<ellipse style="fill:#FF8664;" cx="552.122" cy="184.865" rx="8.063" ry="5.177"/>
					<ellipse style="fill:#FF8664;" cx="637.68" cy="184.865" rx="8.063" ry="5.177"/>
					<path style="fill:#432934;" d="M594.895,199.967c-6.043,0-9.992-1.919-9.992-1.919s1.443,4.394,9.992,4.394
						s9.992-4.394,9.992-4.394S600.938,199.967,594.895,199.967z"/>
					<path style="fill:#432934;" d="M610.77,183.352c0,0,0.972-3.581,3.285-7.026c4.286-6.383,13.425-7.666,18.86-2.228
						c1.261,1.261,2.369,2.915,3.082,5.083l7.224-2.474c0,0-4.424-8.834-14.521-10.861c-5.44-1.092-11.166,0.665-14.647,4.986
						C611.859,173.559,610.185,177.57,610.77,183.352z"/>
					<path style="fill:#432934;" d="M579.032,183.352c0,0-0.971-3.581-3.285-7.026c-4.286-6.383-13.425-7.666-18.86-2.228
						c-1.261,1.261-2.369,2.915-3.082,5.083l-7.224-2.474c0,0,4.425-8.834,14.521-10.861c5.44-1.092,11.166,0.665,14.647,4.986
						C577.944,173.559,579.618,177.57,579.032,183.352z"/>
				</g>
			</g>
		</g>
	</g>
	<g>
		<ellipse style="fill:#D1D1D1;" cx="150.493" cy="440.582" rx="94.804" ry="14.738"/>
		<g>
			<g>
				<g>
					<path style="fill:#8D4338;" d="M214.189,436.942h-40.968v-22.196h30.083l6.916,3.902l7.838,4.413
						c1.597,0.906,2.898,2.338,3.441,4.084c0.016,0.082,0.049,0.165,0.066,0.263C222.932,432.199,219.178,436.942,214.189,436.942z"
						/>
					<path style="fill:#6A3128;" d="M208.12,417.462c-9.549,4.804-16.636,7.147-34.899,5.825v-8.542h30.083L208.12,417.462z"/>
				</g>
				<g>
					<path style="fill:#8D4338;" d="M86.978,436.942h40.968v-22.196H97.862l-6.916,3.902l-7.838,4.413
						c-1.597,0.906-2.898,2.338-3.441,4.084c-0.017,0.082-0.05,0.165-0.066,0.263C78.235,432.199,81.989,436.942,86.978,436.942z"/>
					<path style="fill:#6A3128;" d="M93.047,417.462c9.549,4.804,16.636,7.147,34.899,5.825v-8.542H97.862L93.047,417.462z"/>
				</g>
				<g>
					<path style="fill:#523841;" d="M212.364,410.563c-18.491,14.721-48.46,8.711-48.46,8.711l-6.685-59.492l-0.099,0.017
						c-5.45,1.202-7.805,1.202-13.255,0c-0.033,0-0.066-0.017-0.099-0.017l-6.685,59.492c0,0-29.968,6.01-48.46-8.711l10.11-74.542
						l2.256-15.906h99.01l2.272,15.972L212.364,410.563z"/>
					<path style="fill:#3D2930;" d="M202.271,336.087c-5.895,2.404-13.387,4.133-19.628,5.417
						c-10.637,2.206-21.356,3.293-32.059,3.293c-10.719,0-21.422-1.087-32.059-3.293c-6.306-1.284-13.881-3.03-19.792-5.483
						l2.256-15.906h99.01L202.271,336.087z"/>
					<path style="fill:#4D343D;" d="M212.364,410.563c-18.491,14.721-48.46,8.711-48.46,8.711l-5.582-50.221
						c3.096,14.803,14.111,44.574,53.202,35.534L212.364,410.563z"/>
					<path style="fill:#4D343D;" d="M88.803,410.563c18.492,14.721,48.46,8.711,48.46,8.711l5.582-50.221
						c-3.096,14.803-14.111,44.574-53.202,35.534L88.803,410.563z"/>
				</g>
			</g>
			<g>
				<g>
					<g>
						<path style="fill:#FFAB91;" d="M89.716,254.22l-23.594,59.617c0,0,7.12,8.976,20.738,8.756l26.316-58.663
							C113.176,263.93,105.789,256.615,89.716,254.22z"/>
						<g>
							<path style="fill:#E97D5D;" d="M66.443,337.263l0.115,14.437c0.019,2.344-1.853,4.312-4.197,4.31
								c-0.039,0-0.078,0-0.118-0.001c-2.351-0.037-4.207-2.02-4.154-4.371l0.304-13.69L66.443,337.263z"/>
							<path style="fill:#FD8465;" d="M65.775,354.687c1.116,0.538,2.407,0.58,3.539,0.117c0.037-0.015,0.073-0.03,0.109-0.046
								c2.034-0.884,3.089-3.176,2.443-5.341l-2.314-7.76c-0.482-1.616-0.489-3.327-0.02-4.948l4.122-14.25l-10.02-0.507
								l-3.238,15.74c-0.307,1.493-0.243,3.056,0.185,4.52l2.832,9.689C63.769,353.119,64.63,354.135,65.775,354.687z"/>
							<path style="fill:#FFAB91;" d="M71.477,341.572c1.212,1.213,2.865,1.763,4.539,1.509c0.123-0.019,0.244-0.041,0.362-0.067
								c2.222-0.482,3.897-2.356,4.173-4.664c0.397-3.317,1.245-6.545,1.504-7.485c5.807-5.935,5.313-8.635,4.872-12.282
								c-0.487-4.033-2.429-6.612-2.511-6.72l-0.385-0.504l-0.631,0.061c-2.037,0.196-3.874,0.712-5.485,1.531
								c-2.278,1.159-4.094,2.635-5.336,4.897c-1.692,3.083-1.745,6.418-1.949,9.834c-0.182,3.044-0.241,6.14-0.705,9.158
								C69.661,338.565,70.241,340.334,71.477,341.572z"/>
							<g>
								<path style="fill:#FFAB91;" d="M84.14,311.522c0,0,4.788,13.59-16.219,21.105c0,0-1.948,8.317-2.656,15.63
									c-0.172,1.775-1.862,3.64-3.572,4.143c-0.017,0.005-0.034,0.01-0.051,0.015c-3.161,0.904-6.232-1.749-5.933-5.023
									c0.422-4.615,0.765-10.793,1.341-16.529c0.127-1.264,0.499-2.49,1.075-3.623c2.986-5.874,3.856-7.747,6.001-11.979
									c2.651-5.229,8.443-8.285,14.182-7.085C80.452,308.624,82.528,309.617,84.14,311.522z"/>
							</g>
						</g>
						<path style="fill:#FD9176;" d="M113.176,263.935l-25.026,55.782l-0.993,2.25l-0.001,0.011c-0.08,1.342-0.455,2.75-1.499,4.468
							c-2.101-0.164-4.021-0.455-5.763-0.842c-2.506-0.557-4.664-1.318-6.522-2.198c-0.721-0.34-1.397-0.698-2.019-1.064
							c-0.083-0.049-0.166-0.097-0.238-0.145c-3.593-2.172-5.779-4.745-7.063-6.793c0.024-0.041,0.049-0.094,0.075-0.146
							c0.759-1.501,1.775-2.822,2.98-3.905l22.606-57.132C105.793,256.614,113.176,263.935,113.176,263.935z"/>
					</g>
					<g>
						<path style="fill:#F0E7D0;" d="M109.469,233.664l-3.96,1.07c-9.3,2.633-16.82,9.488-20.301,18.505l-22.376,55.565
							c0,0,10.902,17.126,33.867,15.891l22.338-73.949C119.036,250.746,118.741,239.083,109.469,233.664z"/>
						<path style="fill:#C7B78F;" d="M98.083,320.109l8.242-63.647c0.103-0.796-0.436-1.534-1.226-1.678l0,0
							c-0.849-0.154-1.655,0.434-1.766,1.29l-8.883,68.684c0,0,1.199,0.092,2.247-0.063L98.083,320.109z"/>
						<path style="fill:#E8DCBE;" d="M62.836,308.803c0,0,10.193,16.005,31.615,15.956l6.29-48.74
							c-0.626,3.211-6.718,30.298-35.567,26.955L62.836,308.803z"/>
					</g>
				</g>
				<g>
					<g>
						<g>
							<path style="fill:#F0E7D0;" d="M191.699,233.664l-20.203-6.578l-20.912,1.676l-20.912-1.676l-20.203,6.578L96.87,330.589
								c5.507,3.078,14.775,5.299,22.489,6.891c20.579,4.249,41.87,4.249,62.449,0c7.714-1.593,16.981-3.813,22.489-6.891
								L191.699,233.664z"/>
							<path style="fill:#E8DCBE;" d="M204.296,330.587c-5.5,3.079-14.77,5.302-22.493,6.899c-20.583,4.248-41.857,4.248-62.439,0
								c-7.723-1.597-16.993-3.82-22.493-6.899l1.926-14.869c11.922,7.986,26.955,12.745,43.322,12.745
								c24.386,0,45.874-10.604,58.422-26.691L204.296,330.587z"/>
						</g>
						<g>
							<g>
								<path style="fill:#C7B78F;" d="M163.387,314.583h-25.788v-82.342h25.788V314.583z M139.246,312.936h22.495v-79.049h-22.495
									V312.936z"/>
							</g>
							<g>
								
									<rect x="112.299" y="270.506" transform="matrix(0.0012 -1 1 0.0012 -120.9648 421.5547)" style="fill:#C7B78F;" width="76.48" height="1.646"/>
							</g>
							<circle style="fill:#C7B78F;" cx="156.125" cy="250.973" r="2.217"/>
							<circle style="fill:#C7B78F;" cx="156.125" cy="263.339" r="2.217"/>
							<circle style="fill:#C7B78F;" cx="156.125" cy="275.705" r="2.217"/>
							<circle style="fill:#C7B78F;" cx="156.125" cy="288.071" r="2.217"/>
							<circle style="fill:#C7B78F;" cx="156.125" cy="300.437" r="2.217"/>
						</g>
					</g>
					<g>
						<g>
							<path style="fill:#FFAB91;" d="M171.496,212.674V228.3c0,0-7.443,7.262-16.268,8.464l-4.644,7.119h-0.181l-4.643-7.119
								c-8.842-1.202-16.269-8.464-16.269-8.464v-15.626H171.496z"/>
							<path style="fill:#FF9376;" d="M171.496,212.674v11.707c-6.208,1.021-13.189,1.647-21.011,1.647
								c-7.805,0-14.803-0.626-20.994-1.647v-11.707H171.496z"/>
						</g>
						<g>
							<path style="fill:#F0E7D0;" d="M150.584,243.883l6.997-3.656l10.127,12.716c0,0,11.164-10.234,16.332-23.014
								c0,0-3.912-6.386-12.544-7.333v5.704c0,0-8.255,7.844-16.268,8.464L150.584,243.883z"/>
							<path style="fill:#F0E7D0;" d="M150.584,243.883l-6.997-3.656l-10.127,12.716c0,0-11.164-10.234-16.332-23.014
								c0,0,3.912-6.386,12.544-7.333v5.704c0,0,8.255,7.844,16.269,8.464L150.584,243.883z"/>
							<path style="fill:#D4C9AC;" d="M117.588,231.021c0,0,3.995,10.611,15.872,21.921l9.068-11.386
								c0.556-0.699,1.605-0.736,2.21-0.079l0,0c0.483,0.525,0.515,1.322,0.076,1.883l-10.61,13.577c0,0-13.089-7.387-19.013-25.136
								L117.588,231.021z"/>
							<path style="fill:#D4C9AC;" d="M183.579,231.021c0,0-3.995,10.611-15.872,21.921l-9.068-11.386
								c-0.556-0.699-1.605-0.736-2.21-0.079l0,0c-0.483,0.525-0.515,1.322-0.076,1.883l10.61,13.577
								c0,0,13.089-7.387,19.013-25.136L183.579,231.021z"/>
						</g>
					</g>
				</g>
				<g>
					<g>
						<g>
							<g>
								<path style="fill:#FFAB91;" d="M238.743,232.983l4.564-16.109c0.719-2.538,3.252-4.105,5.847-3.628
									c0.121,0.022,0.243,0.046,0.366,0.072c2.807,0.597,4.476,3.513,3.731,6.284l-3.278,12.194l6.508-12.375
									c1.4-2.661,4.824-3.599,7.304-1.898c0.038,0.026,0.075,0.052,0.112,0.078c2.134,1.497,2.715,4.414,1.413,6.672
									l-7.439,12.904l5.533-4.577c1.753-1.45,4.357-1.401,5.959,0.214c0.024,0.024,0.048,0.049,0.072,0.074
									c1.776,1.829,1.575,4.803-0.358,6.464l-7.9,6.785c0,0-4.116,11.668-16.617,8.188l-7.73-4.295c0,0-5.257-3.135-4.444-8.747
									c0,0-2.605-5.392-4.23-9.399c-0.735-1.813-0.317-3.934,1.138-5.242c0.028-0.025,0.055-0.049,0.083-0.074
									c2.354-2.057,6.043-1.2,7.388,1.622C237.447,229.622,238.228,231.394,238.743,232.983z"/>
								<path style="fill:#CF7857;" d="M238.743,232.983l0.944,2.412c0,0,5.341,1.409,6.625,6.982
									c0.12,0.52,0.675,0.814,1.175,0.624l0,0c0.416-0.158,0.65-0.594,0.551-1.028c-0.381-1.677-1.8-5.674-6.853-7.646
									l-1.642-4.165L238.743,232.983z"/>
							</g>
							<path style="fill:#FFAB91;" d="M255.679,252.875l-15.991,32.333c-4.06,8.164-12.935,13-21.932,11.507
								c-0.806-0.13-1.611-0.31-2.416-0.52c-0.027-0.007-0.055-0.015-0.082-0.022c-4.247-1.15-6.274-6.02-4.295-9.949l9.049-17.964
								l12.922-25.054L255.679,252.875z"/>
							<path style="fill:#FF9376;" d="M255.202,253.847l-15.516,31.36c-4.057,8.165-12.931,13.003-21.93,11.51
								c-0.803-0.134-1.616-0.319-2.419-0.525c-0.021-0.01-0.052-0.01-0.082-0.021c-4.242-1.153-6.27-6.023-4.293-9.946l9.05-17.966
								l12.468-24.184c-0.041-0.175-0.072-0.36-0.093-0.556c0.113,0.031,0.227,0.051,0.34,0.082c0.824,0.185,1.771,0.422,2.811,0.71
								c4.623,1.246,11.078,3.439,16.329,6.939c1.05,0.7,2.059,1.462,2.986,2.275C254.965,253.621,255.089,253.724,255.202,253.847z
								"/>
						</g>
						<g>
							<path style="fill:#F0E7D0;" d="M191.699,233.664c0,0,11.757,2.539,16.413,9.448l12.3,21.19l8.576-18.307
								c0,0,18.198,2.985,25.825,11.832l-15.528,32.113c-2.726,5.637-8.006,9.75-14.211,10.588
								c-1.011,0.136-2.084,0.203-3.222,0.181c-5.554-0.106-10.835-2.437-14.916-6.207l-8.09-5.851L191.699,233.664z"/>
							<path style="fill:#C7B78F;" d="M220.412,264.302l-2.796,6.643c-0.219,0.52-0.83,0.748-1.336,0.498l0,0
								c-0.469-0.231-0.673-0.789-0.465-1.268l3.428-7.888L220.412,264.302z"/>
						</g>
						<path style="fill:#C7B78F;" d="M198.846,288.652l-3.248-32.343c-0.086-0.829,0.564-1.549,1.397-1.549l0,0
							c0.726,0,1.333,0.554,1.399,1.277l3.132,34.554L198.846,288.652z"/>
					</g>
				</g>
			</g>
			<g>
				<g>
					<path style="fill:#432934;" d="M225.393,172.604c0,0,12.854-43.307-5.558-53.688c0,0-0.924-22.879-37.26-28.374
						c-6.702-1.013-13.5-1.163-20.264-0.724c-10.677,0.693-34.668,1.606-54.541-2.306c0,0-6.666-1.058-14.716,0.72
						c-18.655,4.122-29.975,23.811-23.747,41.872c1.207,3.501,3.186,6.986,6.281,10.161c0,0-2.113,17.821,0,32.34l74.908,18.894
						L225.393,172.604z"/>
					
						<ellipse transform="matrix(0.9055 -0.4244 0.4244 0.9055 -35.5869 48.9833)" style="fill:#4A2D39;" cx="92.175" cy="104.385" rx="19.517" ry="12.78"/>
				</g>
				<g>
					<path style="fill:#FFAB91;" d="M198.392,178.949c0,0,18.198-15.362,30.363-6.213c4.508,3.391,6.532,9.13,5.822,14.726
						c-1.077,8.489-7.465,19.942-36.185,11.863V178.949z"/>
					<g>
						<path style="fill:#FF9376;" d="M223.229,190.829c-1.552,1.58-4.086,2.933-8.159,3.488c-3.488,0.484-8.13,0.37-14.253-0.684
							v-7.333c0,0,5.097-4.613,10.907-6.92c1.936-0.769,3.944-1.267,5.866-1.267C224.368,178.142,227.984,185.988,223.229,190.829z"
							/>
						<path style="fill:#EB7D5D;" d="M218.544,192.039c-0.84,0.854-1.965,1.637-3.474,2.278c-3.488,0.484-8.13,0.37-14.253-0.684
							v-7.333c0,0,5.097-4.613,10.907-6.92c0.399-0.043,0.783-0.057,1.167-0.057C219.683,179.339,223.286,187.198,218.544,192.039z"
							/>
					</g>
				</g>
				<g>
					<path style="fill:#FFAB91;" d="M102.589,178.949c0,0-18.198-15.362-30.363-6.213c-4.508,3.391-6.532,9.13-5.822,14.726
						c1.077,8.489,7.465,19.942,36.185,11.863V178.949z"/>
					<g>
						<path style="fill:#FF9376;" d="M77.752,190.829c1.552,1.58,4.086,2.933,8.159,3.488c3.488,0.484,8.13,0.37,14.253-0.684
							v-7.333c0,0-5.097-4.613-10.907-6.92c-1.936-0.769-3.944-1.267-5.866-1.267C76.613,178.142,72.997,185.988,77.752,190.829z"/>
						<path style="fill:#EB7D5D;" d="M82.437,192.039c0.84,0.854,1.965,1.637,3.474,2.278c3.488,0.484,8.13,0.37,14.253-0.684
							v-7.333c0,0-5.097-4.613-10.907-6.92c-0.399-0.043-0.783-0.057-1.168-0.057C81.298,179.339,77.695,187.198,82.437,192.039z"/>
					</g>
				</g>
				<g>
					<path style="fill:#FFAB91;" d="M192.773,213.596c-9.353,4.1-23.25,7.986-42.285,7.986c-19.035,0-32.916-3.886-42.285-7.986
						c-9.336-4.084-15.116-13.617-14.688-23.81l1.745-46.401c0,0,0,0,0.016-0.017c0.511-0.198,8.497-3.622,11.213-13.123
						c0,0,14.358-3.326,43.997-3.326c29.655,0,44.195,3.326,44.195,3.326c2.569,8.974,9.83,12.531,11.032,13.074l1.762,46.467
						C207.889,199.979,202.126,209.512,192.773,213.596z"/>
					<path style="fill:#FF9376;" d="M205.887,143.385c0,0,0,0-0.016-0.017c-0.51-0.198-8.497-3.622-11.213-13.123
						c0,0-14.358-3.326-43.997-3.326h-0.165h-0.165c-29.639,0-43.997,3.326-43.997,3.326c-2.717,9.501-10.703,12.926-11.213,13.123
						c-0.016,0.017-0.016,0.017-0.016,0.017l-0.263,6.998c0,0,10.258-2.684,15.165-14.507c0,0,8.743-3.079,40.49-3.079
						c31.746,0,40.49,3.079,40.49,3.079c4.907,11.823,15.165,14.507,15.165,14.507L205.887,143.385z"/>
				</g>
				<g>
					<g>
						<ellipse style="fill:#432934;" cx="121.347" cy="175.833" rx="9.951" ry="12.134"/>
						<circle style="fill:#FFFFFF;" cx="124.345" cy="173.033" r="4.476"/>
					</g>
					<path style="fill:#432934;" d="M110.856,155.145c1.848-1.078,4.723-2.316,8.598-2.71c2.034-0.207,3.524-2.007,3.273-4.035l0,0
						c-0.246-1.991-2.062-3.387-4.053-3.14c-3.062,0.379-7.53,1.594-11.321,5.245c-0.925,0.891-1.123,2.307-0.528,3.445l0,0
						C107.592,155.415,109.428,155.979,110.856,155.145z"/>
					<g>
						<ellipse style="fill:#432934;" cx="179.634" cy="175.833" rx="9.951" ry="12.134"/>
						<circle style="fill:#FFFFFF;" cx="176.636" cy="173.033" r="4.476"/>
					</g>
					<path style="fill:#432934;" d="M190.125,155.145c-1.848-1.078-4.723-2.316-8.598-2.71c-2.034-0.207-3.524-2.007-3.273-4.035
						l0,0c0.246-1.991,2.062-3.387,4.053-3.14c3.062,0.379,7.53,1.594,11.321,5.245c0.925,0.891,1.123,2.307,0.528,3.445l0,0
						C193.389,155.415,191.553,155.979,190.125,155.145z"/>
					<g>
						<g>
							<circle style="fill:#F28468;" cx="150.652" cy="183.779" r="5.825"/>
							<path style="fill:#FD9176;" d="M154.775,183.132c0,1.946-1.578,3.524-3.524,3.524s-3.524-1.578-3.524-3.524
								s1.578-3.524,3.524-3.524S154.775,181.186,154.775,183.132z"/>
						</g>
						<path d="M155.844,186.365c0.413-0.783,0.627-1.652,0.627-2.591c0-3.218-2.606-5.824-5.824-5.824
							c-3.161,0-5.738,2.52-5.809,5.667c-0.142-0.513-0.214-1.054-0.214-1.609c0-3.574,2.89-6.464,6.464-6.464
							c3.56,0,6.464,2.89,6.464,6.464C157.553,183.688,156.912,185.226,155.844,186.365z"/>
					</g>
					<path style="fill:#FF8664;" d="M118.936,187.967c0,2.859-3.61,5.178-8.063,5.178c-4.453,0-8.063-2.318-8.063-5.178
						c0-2.859,3.61-5.178,8.063-5.178C115.326,182.79,118.936,185.108,118.936,187.967z"/>
					<ellipse style="fill:#FF8664;" cx="190.431" cy="187.967" rx="8.063" ry="5.177"/>
					<g>
						<path style="fill:#432934;" d="M165.782,202.029c-0.998,1.328-2.615,3.025-5.066,4.392c-2.451,1.363-5.735,2.396-10.062,2.396
							h-0.005c-8.649,0-13.136-4.128-15.128-6.788c-1.158-1.542-1.368-3.618-0.504-5.34c0.07-0.14,0.145-0.27,0.22-0.394
							c0.594-1.003,1.512-1.727,2.565-2.106c1.003-0.364,2.121-0.419,3.189-0.1c4.881,1.437,9.658,1.437,9.658,1.437h0.005
							c0,0,4.781,0,9.663-1.437c1.068-0.319,2.186-0.265,3.189,0.1c1.053,0.379,1.971,1.103,2.565,2.106
							c0.07,0.125,0.145,0.255,0.215,0.394C167.15,198.411,166.94,200.487,165.782,202.029z"/>
						<path style="fill:#FFFFFF;" d="M163.507,194.188c-1.402,2.805-6.623,4.886-12.852,4.886c-6.234,0-11.454-2.081-12.852-4.886
							c1.003-0.364,2.121-0.419,3.189-0.1c4.881,1.437,9.658,1.437,9.658,1.437h0.005c0,0,4.781,0,9.663-1.437
							C161.385,193.769,162.503,193.824,163.507,194.188z"/>
						<g>
							<path style="fill:#F03E57;" d="M160.836,206.351c-0.04,0.025-0.08,0.045-0.12,0.07c-2.451,1.363-5.735,2.396-10.062,2.396
								h-0.005c-4.392,0-7.711-1.063-10.177-2.461c1.203-2.006,4.412-5.735,10.182-1.902
								C156.419,200.627,159.628,204.345,160.836,206.351z"/>
							<path style="fill:#FA415B;" d="M148.632,204.934c0,0.777-1.211,1.407-2.704,1.407s-2.704-0.63-2.704-1.407
								s1.211-1.407,2.704-1.407S148.632,204.157,148.632,204.934z"/>
							<path style="fill:#FA415B;" d="M152.677,204.934c0,0.777,1.211,1.407,2.704,1.407s2.705-0.63,2.705-1.407
								s-1.211-1.407-2.705-1.407S152.677,204.157,152.677,204.934z"/>
						</g>
					</g>
				</g>
			</g>
		</g>
	</g>
</g>
</svg>
